 0
SECTION
 2
HEADER
 9
$ACADVER
 1
AC1009
 0
ENDSEC
 0
SECTION
 2
ENTITIES
 0
POLYLINE
 8
TITLE
 66
1
 70
1
 10
0.0
 20
0.0
 30
0.0
 0
VERTEX
 8
TITLE
 10
 -0.1000
 20
  0.1000
 30
0.0
 0
VERTEX
 8
TITLE
 10
  9.6000
 20
  0.1000
 30
0.0
 0
VERTEX
 8
TITLE
 10
  9.6000
 20
  7.3000
 30
0.0
 0
VERTEX
 8
TITLE
 10
 -0.1000
 20
  7.3000
 30
0.0
 0
SEQEND
 8
TITLE
 0
POLYLINE
 8
TITLE
 66
1
 70
1
 10
0.0
 20
0.0
 30
0.0
 0
VERTEX
 8
TITLE
 10
  0.0000
 20
  0.2000
 30
0.0
 0
VERTEX
 8
TITLE
 10
  9.5000
 20
  0.2000
 30
0.0
 0
VERTEX
 8
TITLE
 10
  9.5000
 20
  7.2000
 30
0.0
 0
VERTEX
 8
TITLE
 10
  0.0000
 20
  7.2000
 30
0.0
 0
SEQEND
 8
TITLE
 0
POLYLINE
 8
TITLE
 66
1
 10
0.0
 20
0.0
 30
0.0
 0
VERTEX
 8
TITLE
 10
  2.0600
 20
  0.2000
 30
0.0
 0
VERTEX
 8
TITLE
 10
  2.0600
 20
  0.1000
 30
0.0
 0
SEQEND
 8
TITLE
 0
POLYLINE
 8
TITLE
 66
1
 10
0.0
 20
0.0
 30
0.0
 0
VERTEX
 8
TITLE
 10
  2.0600
 20
  7.2000
 30
0.0
 0
VERTEX
 8
TITLE
 10
  2.0600
 20
  7.3000
 30
0.0
 0
SEQEND
 8
TITLE
 0
POLYLINE
 8
TITLE
 66
1
 10
0.0
 20
0.0
 30
0.0
 0
VERTEX
 8
TITLE
 10
  3.9200
 20
  0.2000
 30
0.0
 0
VERTEX
 8
TITLE
 10
  3.9200
 20
  0.1000
 30
0.0
 0
SEQEND
 8
TITLE
 0
POLYLINE
 8
TITLE
 66
1
 10
0.0
 20
0.0
 30
0.0
 0
VERTEX
 8
TITLE
 10
  3.9200
 20
  7.2000
 30
0.0
 0
VERTEX
 8
TITLE
 10
  3.9200
 20
  7.3000
 30
0.0
 0
SEQEND
 8
TITLE
 0
POLYLINE
 8
TITLE
 66
1
 10
0.0
 20
0.0
 30
0.0
 0
VERTEX
 8
TITLE
 10
  5.7800
 20
  0.2000
 30
0.0
 0
VERTEX
 8
TITLE
 10
  5.7800
 20
  0.1000
 30
0.0
 0
SEQEND
 8
TITLE
 0
POLYLINE
 8
TITLE
 66
1
 10
0.0
 20
0.0
 30
0.0
 0
VERTEX
 8
TITLE
 10
  5.7800
 20
  7.2000
 30
0.0
 0
VERTEX
 8
TITLE
 10
  5.7800
 20
  7.3000
 30
0.0
 0
SEQEND
 8
TITLE
 0
POLYLINE
 8
TITLE
 66
1
 10
0.0
 20
0.0
 30
0.0
 0
VERTEX
 8
TITLE
 10
  7.6400
 20
  0.2000
 30
0.0
 0
VERTEX
 8
TITLE
 10
  7.6400
 20
  0.1000
 30
0.0
 0
SEQEND
 8
TITLE
 0
POLYLINE
 8
TITLE
 66
1
 10
0.0
 20
0.0
 30
0.0
 0
VERTEX
 8
TITLE
 10
  7.6400
 20
  7.2000
 30
0.0
 0
VERTEX
 8
TITLE
 10
  7.6400
 20
  7.3000
 30
0.0
 0
SEQEND
 8
TITLE
 0
TEXT
 8
TITLE
 10
  1.1300
 20
  0.1200
 30
0.0
 40
  0.0500
 1
5
 0
TEXT
 8
TITLE
 10
  1.1300
 20
  7.2200
 30
0.0
 40
  0.0500
 1
5
 0
TEXT
 8
TITLE
 10
  2.9900
 20
  0.1200
 30
0.0
 40
  0.0500
 1
4
 0
TEXT
 8
TITLE
 10
  2.9900
 20
  7.2200
 30
0.0
 40
  0.0500
 1
4
 0
TEXT
 8
TITLE
 10
  4.8500
 20
  0.1200
 30
0.0
 40
  0.0500
 1
3
 0
TEXT
 8
TITLE
 10
  4.8500
 20
  7.2200
 30
0.0
 40
  0.0500
 1
3
 0
TEXT
 8
TITLE
 10
  6.7100
 20
  0.1200
 30
0.0
 40
  0.0500
 1
2
 0
TEXT
 8
TITLE
 10
  6.7100
 20
  7.2200
 30
0.0
 40
  0.0500
 1
2
 0
TEXT
 8
TITLE
 10
  8.5700
 20
  0.1200
 30
0.0
 40
  0.0500
 1
1
 0
TEXT
 8
TITLE
 10
  8.5700
 20
  7.2200
 30
0.0
 40
  0.0500
 1
1
 0
POLYLINE
 8
TITLE
 66
1
 10
0.0
 20
0.0
 30
0.0
 0
VERTEX
 8
TITLE
 10
 -0.1000
 20
  5.3000
 30
0.0
 0
VERTEX
 8
TITLE
 10
  0.0000
 20
  5.3000
 30
0.0
 0
SEQEND
 8
TITLE
 0
POLYLINE
 8
TITLE
 66
1
 10
0.0
 20
0.0
 30
0.0
 0
VERTEX
 8
TITLE
 10
  9.5000
 20
  5.3000
 30
0.0
 0
VERTEX
 8
TITLE
 10
  9.6000
 20
  5.3000
 30
0.0
 0
SEQEND
 8
TITLE
 0
SOLID
 8
TITLE
 10
  0.0000
 20
  3.6000
 30
0.0
 11
 -0.0500
 21
  3.6200
 31
0.0
 12
 -0.0500
 22
  3.5800
 32
0.0
 13
 -0.0500
 23
  3.6000
 33
0.0
 0
SOLID
 8
TITLE
 10
  9.5000
 20
  3.6000
 30
0.0
 11
  9.5500
 21
  3.6200
 31
0.0
 12
  9.5500
 22
  3.5800
 32
0.0
 13
  9.5500
 23
  3.6000
 33
0.0
 0
POLYLINE
 8
TITLE
 66
1
 10
0.0
 20
0.0
 30
0.0
 0
VERTEX
 8
TITLE
 10
 -0.1000
 20
  3.6000
 30
0.0
 0
VERTEX
 8
TITLE
 10
  0.0000
 20
  3.6000
 30
0.0
 0
SEQEND
 8
TITLE
 0
POLYLINE
 8
TITLE
 66
1
 10
0.0
 20
0.0
 30
0.0
 0
VERTEX
 8
TITLE
 10
  9.5000
 20
  3.6000
 30
0.0
 0
VERTEX
 8
TITLE
 10
  9.6000
 20
  3.6000
 30
0.0
 0
SEQEND
 8
TITLE
 0
SOLID
 8
TITLE
 10
  0.0000
 20
  3.6000
 30
0.0
 11
 -0.0500
 21
  3.6200
 31
0.0
 12
 -0.0500
 22
  3.5800
 32
0.0
 13
 -0.0500
 23
  3.6000
 33
0.0
 0
SOLID
 8
TITLE
 10
  9.5000
 20
  3.6000
 30
0.0
 11
  9.5500
 21
  3.6200
 31
0.0
 12
  9.5500
 22
  3.5800
 32
0.0
 13
  9.5500
 23
  3.6000
 33
0.0
 0
POLYLINE
 8
TITLE
 66
1
 10
0.0
 20
0.0
 30
0.0
 0
VERTEX
 8
TITLE
 10
 -0.1000
 20
  1.9000
 30
0.0
 0
VERTEX
 8
TITLE
 10
  0.0000
 20
  1.9000
 30
0.0
 0
SEQEND
 8
TITLE
 0
POLYLINE
 8
TITLE
 66
1
 10
0.0
 20
0.0
 30
0.0
 0
VERTEX
 8
TITLE
 10
  9.5000
 20
  1.9000
 30
0.0
 0
VERTEX
 8
TITLE
 10
  9.6000
 20
  1.9000
 30
0.0
 0
SEQEND
 8
TITLE
 0
SOLID
 8
TITLE
 10
  0.0000
 20
  3.6000
 30
0.0
 11
 -0.0500
 21
  3.6200
 31
0.0
 12
 -0.0500
 22
  3.5800
 32
0.0
 13
 -0.0500
 23
  3.6000
 33
0.0
 0
SOLID
 8
TITLE
 10
  9.5000
 20
  3.6000
 30
0.0
 11
  9.5500
 21
  3.6200
 31
0.0
 12
  9.5500
 22
  3.5800
 32
0.0
 13
  9.5500
 23
  3.6000
 33
0.0
 0
TEXT
 8
TITLE
 10
 -0.0800
 20
  6.1500
 30
0.0
 40
  0.0500
 1
D
 0
TEXT
 8
TITLE
 10
  9.5200
 20
  6.1500
 30
0.0
 40
  0.0500
 1
D
 0
TEXT
 8
TITLE
 10
 -0.0800
 20
  4.4500
 30
0.0
 40
  0.0500
 1
C
 0
TEXT
 8
TITLE
 10
  9.5200
 20
  4.4500
 30
0.0
 40
  0.0500
 1
C
 0
TEXT
 8
TITLE
 10
 -0.0800
 20
  2.7500
 30
0.0
 40
  0.0500
 1
B
 0
TEXT
 8
TITLE
 10
  9.5200
 20
  2.7500
 30
0.0
 40
  0.0500
 1
B
 0
TEXT
 8
TITLE
 10
 -0.0800
 20
  1.0500
 30
0.0
 40
  0.0500
 1
A
 0
TEXT
 8
TITLE
 10
  9.5200
 20
  1.0500
 30
0.0
 40
  0.0500
 1
A
 0
TEXT
 8
TITLE
 10
  6.0000
 20
  0.5186
 30
0.0
 40
  0.0514
 1
<Doc>
 0
TEXT
 8
TITLE
 10
  9.0000
 20
  0.5186
 30
0.0
 40
  0.0514
 1
<RevCode>
 0
TEXT
 8
TITLE
 10
  6.0000
 20
  0.8186
 30
0.0
 40
  0.0514
 1
UdooCircuit
 0
TEXT
 8
TITLE
 10
  5.7000
 20
  0.5186
 30
0.0
 40
  0.0514
 1
A
 0
TEXT
 8
TITLE
 10
  8.1000
 20
  0.3186
 30
0.0
 40
  0.0514
 1
1
 0
TEXT
 8
TITLE
 10
  8.7000
 20
  0.3186
 30
0.0
 40
  0.0514
 1
1
 0
TEXT
 8
TITLE
 10
  6.1200
 20
  0.3186
 30
0.0
 40
  0.0514
 1
Saturday, January 09, 2016
 0
TEXT
 8
PARTTEXT
 10
  5.6000
 20
  0.9186
 30
0.0
 40
  0.0514
 1
Title
 0
TEXT
 8
PARTTEXT
 10
  5.6000
 20
  0.6186
 30
0.0
 40
  0.0514
 1
Size
 0
TEXT
 8
PARTTEXT
 10
  6.0000
 20
  0.6186
 30
0.0
 40
  0.0514
 1
Document Number
 0
TEXT
 8
PARTTEXT
 10
  8.9000
 20
  0.6186
 30
0.0
 40
  0.0514
 1
Rev
 0
TEXT
 8
PARTTEXT
 10
  5.6000
 20
  0.3186
 30
0.0
 40
  0.0514
 1
Date:
 0
TEXT
 8
PARTTEXT
 10
  7.6000
 20
  0.3186
 30
0.0
 40
  0.0514
 1
Sheet
 0
POLYLINE
 8
TITLE
 66
1
 70
1
 10
0.0
 20
0.0
 30
0.0
 0
VERTEX
 8
TITLE
 10
  5.6000
 20
  1.2000
 30
0.0
 0
VERTEX
 8
TITLE
 10
  9.2000
 20
  1.2000
 30
0.0
 0
VERTEX
 8
TITLE
 10
  9.2000
 20
  1.0000
 30
0.0
 0
VERTEX
 8
TITLE
 10
  5.6000
 20
  1.0000
 30
0.0
 0
SEQEND
 8
TITLE
 0
POLYLINE
 8
TITLE
 66
1
 70
1
 10
0.0
 20
0.0
 30
0.0
 0
VERTEX
 8
TITLE
 10
  5.6000
 20
  1.0000
 30
0.0
 0
VERTEX
 8
TITLE
 10
  9.2000
 20
  1.0000
 30
0.0
 0
VERTEX
 8
TITLE
 10
  9.2000
 20
  0.7000
 30
0.0
 0
VERTEX
 8
TITLE
 10
  5.6000
 20
  0.7000
 30
0.0
 0
SEQEND
 8
TITLE
 0
POLYLINE
 8
TITLE
 66
1
 70
1
 10
0.0
 20
0.0
 30
0.0
 0
VERTEX
 8
TITLE
 10
  5.6000
 20
  0.7000
 30
0.0
 0
VERTEX
 8
TITLE
 10
  5.9000
 20
  0.7000
 30
0.0
 0
VERTEX
 8
TITLE
 10
  5.9000
 20
  0.4000
 30
0.0
 0
VERTEX
 8
TITLE
 10
  5.6000
 20
  0.4000
 30
0.0
 0
SEQEND
 8
TITLE
 0
POLYLINE
 8
TITLE
 66
1
 70
1
 10
0.0
 20
0.0
 30
0.0
 0
VERTEX
 8
TITLE
 10
  5.9000
 20
  0.7000
 30
0.0
 0
VERTEX
 8
TITLE
 10
  8.9000
 20
  0.7000
 30
0.0
 0
VERTEX
 8
TITLE
 10
  8.9000
 20
  0.4000
 30
0.0
 0
VERTEX
 8
TITLE
 10
  5.9000
 20
  0.4000
 30
0.0
 0
SEQEND
 8
TITLE
 0
POLYLINE
 8
TITLE
 66
1
 70
1
 10
0.0
 20
0.0
 30
0.0
 0
VERTEX
 8
TITLE
 10
  8.9000
 20
  0.7000
 30
0.0
 0
VERTEX
 8
TITLE
 10
  9.2000
 20
  0.7000
 30
0.0
 0
VERTEX
 8
TITLE
 10
  9.2000
 20
  0.4000
 30
0.0
 0
VERTEX
 8
TITLE
 10
  8.9000
 20
  0.4000
 30
0.0
 0
SEQEND
 8
TITLE
 0
POLYLINE
 8
TITLE
 66
1
 70
1
 10
0.0
 20
0.0
 30
0.0
 0
VERTEX
 8
TITLE
 10
  5.6000
 20
  0.4000
 30
0.0
 0
VERTEX
 8
TITLE
 10
  7.6000
 20
  0.4000
 30
0.0
 0
VERTEX
 8
TITLE
 10
  7.6000
 20
  0.3000
 30
0.0
 0
VERTEX
 8
TITLE
 10
  5.6000
 20
  0.3000
 30
0.0
 0
SEQEND
 8
TITLE
 0
POLYLINE
 8
TITLE
 66
1
 70
1
 10
0.0
 20
0.0
 30
0.0
 0
VERTEX
 8
TITLE
 10
  7.6000
 20
  0.4000
 30
0.0
 0
VERTEX
 8
TITLE
 10
  9.2000
 20
  0.4000
 30
0.0
 0
VERTEX
 8
TITLE
 10
  9.2000
 20
  0.3000
 30
0.0
 0
VERTEX
 8
TITLE
 10
  7.6000
 20
  0.3000
 30
0.0
 0
SEQEND
 8
TITLE
 0
TEXT
 8
PARTTEXT
 10
  8.4000
 20
  0.3186
 30
0.0
 40
  0.0514
 1
of
 0
TEXT
 8
PARTTEXT
 10
  5.8500
 20
  3.8186
 30
0.0
 40
  0.0514
 1
R4
 0
TEXT
 8
PARTTEXT
 10
  5.9000
 20
  3.6586
 30
0.0
 40
  0.0514
 1
220
 0
LINE
 8
PARTS
 10
  5.7000
 20
  3.5000
 30
0.0
 11
  5.7000
 21
  3.6000
 31
0.0
 0
TEXT
 8
PARTS
 10
  5.6700
 20
  3.4800
 30
0.0
 40
  0.0500
 50
 90.0000
 1

 0
LINE
 8
PARTS
 10
  5.7000
 20
  4.0000
 30
0.0
 11
  5.7000
 21
  3.9000
 31
0.0
 0
TEXT
 8
PARTS
 10
  5.6700
 20
  3.9600
 30
0.0
 40
  0.0500
 50
 90.0000
 1

 0
POLYLINE
 8
PARTS
 66
1
 10
0.0
 20
0.0
 30
0.0
 0
VERTEX
 8
PARTS
 10
  5.5000
 20
  3.9000
 30
0.0
 0
VERTEX
 8
PARTS
 10
  5.4700
 20
  3.9300
 30
0.0
 0
SEQEND
 8
PARTS
 0
POLYLINE
 8
PARTS
 66
1
 10
0.0
 20
0.0
 30
0.0
 0
VERTEX
 8
PARTS
 10
  5.4700
 20
  3.9300
 30
0.0
 0
VERTEX
 8
PARTS
 10
  5.5300
 20
  3.9900
 30
0.0
 0
SEQEND
 8
PARTS
 0
POLYLINE
 8
PARTS
 66
1
 10
0.0
 20
0.0
 30
0.0
 0
VERTEX
 8
PARTS
 10
  5.5300
 20
  3.9900
 30
0.0
 0
VERTEX
 8
PARTS
 10
  5.4700
 20
  4.0500
 30
0.0
 0
SEQEND
 8
PARTS
 0
POLYLINE
 8
PARTS
 66
1
 10
0.0
 20
0.0
 30
0.0
 0
VERTEX
 8
PARTS
 10
  5.4700
 20
  4.0500
 30
0.0
 0
VERTEX
 8
PARTS
 10
  5.5300
 20
  4.1100
 30
0.0
 0
SEQEND
 8
PARTS
 0
POLYLINE
 8
PARTS
 66
1
 10
0.0
 20
0.0
 30
0.0
 0
VERTEX
 8
PARTS
 10
  5.5300
 20
  4.1100
 30
0.0
 0
VERTEX
 8
PARTS
 10
  5.4700
 20
  4.1700
 30
0.0
 0
SEQEND
 8
PARTS
 0
POLYLINE
 8
PARTS
 66
1
 10
0.0
 20
0.0
 30
0.0
 0
VERTEX
 8
PARTS
 10
  5.4700
 20
  4.1700
 30
0.0
 0
VERTEX
 8
PARTS
 10
  5.5000
 20
  4.2000
 30
0.0
 0
SEQEND
 8
PARTS
 0
TEXT
 8
PARTTEXT
 10
  4.8500
 20
  4.4186
 30
0.0
 40
  0.0514
 1
D6
 0
TEXT
 8
PARTTEXT
 10
  4.9000
 20
  4.2586
 30
0.0
 40
  0.0514
 1
3.3
 0
LINE
 8
PARTS
 10
  4.7000
 20
  4.2000
 30
0.0
 11
  4.7000
 21
  4.3000
 31
0.0
 0
LINE
 8
PARTS
 10
  4.7000
 20
  4.6000
 30
0.0
 11
  4.7000
 21
  4.5000
 31
0.0
 0
POLYLINE
 8
PARTS
 66
1
 10
0.0
 20
0.0
 30
0.0
 0
VERTEX
 8
PARTS
 10
  4.4200
 20
  4.5000
 30
0.0
 0
VERTEX
 8
PARTS
 10
  4.5000
 20
  4.6000
 30
0.0
 0
SEQEND
 8
PARTS
 0
POLYLINE
 8
PARTS
 66
1
 10
0.0
 20
0.0
 30
0.0
 0
VERTEX
 8
PARTS
 10
  4.5000
 20
  4.6000
 30
0.0
 0
VERTEX
 8
PARTS
 10
  4.5800
 20
  4.5000
 30
0.0
 0
SEQEND
 8
PARTS
 0
POLYLINE
 8
PARTS
 66
1
 10
0.0
 20
0.0
 30
0.0
 0
VERTEX
 8
PARTS
 10
  4.5800
 20
  4.6000
 30
0.0
 0
VERTEX
 8
PARTS
 10
  4.4200
 20
  4.6000
 30
0.0
 0
SEQEND
 8
PARTS
 0
POLYLINE
 8
PARTS
 66
1
 10
0.0
 20
0.0
 30
0.0
 0
VERTEX
 8
PARTS
 10
  4.5000
 20
  4.7000
 30
0.0
 0
VERTEX
 8
PARTS
 10
  4.5000
 20
  4.6000
 30
0.0
 0
SEQEND
 8
PARTS
 0
POLYLINE
 8
PARTS
 66
1
 10
0.0
 20
0.0
 30
0.0
 0
VERTEX
 8
PARTS
 10
  4.4400
 20
  4.6000
 30
0.0
 0
VERTEX
 8
PARTS
 10
  4.4400
 20
  4.6000
 30
0.0
 0
SEQEND
 8
PARTS
 0
POLYLINE
 8
PARTS
 66
1
 10
0.0
 20
0.0
 30
0.0
 0
VERTEX
 8
PARTS
 10
  4.4400
 20
  4.6000
 30
0.0
 0
VERTEX
 8
PARTS
 10
  4.4400
 20
  4.6000
 30
0.0
 0
SEQEND
 8
PARTS
 0
POLYLINE
 8
PARTS
 66
1
 10
0.0
 20
0.0
 30
0.0
 0
VERTEX
 8
PARTS
 10
  4.5800
 20
  4.5000
 30
0.0
 0
VERTEX
 8
PARTS
 10
  4.4200
 20
  4.5000
 30
0.0
 0
SEQEND
 8
PARTS
 0
POLYLINE
 8
PARTS
 66
1
 10
0.0
 20
0.0
 30
0.0
 0
VERTEX
 8
PARTS
 10
  4.4800
 20
  4.6200
 30
0.0
 0
VERTEX
 8
PARTS
 10
  4.4200
 20
  4.6600
 30
0.0
 0
SEQEND
 8
PARTS
 0
POLYLINE
 8
PARTS
 66
1
 10
0.0
 20
0.0
 30
0.0
 0
VERTEX
 8
PARTS
 10
  4.4300
 20
  4.6300
 30
0.0
 0
VERTEX
 8
PARTS
 10
  4.4200
 20
  4.6600
 30
0.0
 0
SEQEND
 8
PARTS
 0
POLYLINE
 8
PARTS
 66
1
 10
0.0
 20
0.0
 30
0.0
 0
VERTEX
 8
PARTS
 10
  4.4500
 20
  4.6600
 30
0.0
 0
VERTEX
 8
PARTS
 10
  4.4200
 20
  4.6600
 30
0.0
 0
SEQEND
 8
PARTS
 0
POLYLINE
 8
PARTS
 66
1
 10
0.0
 20
0.0
 30
0.0
 0
VERTEX
 8
PARTS
 10
  4.4800
 20
  4.6600
 30
0.0
 0
VERTEX
 8
PARTS
 10
  4.4200
 20
  4.7000
 30
0.0
 0
SEQEND
 8
PARTS
 0
POLYLINE
 8
PARTS
 66
1
 10
0.0
 20
0.0
 30
0.0
 0
VERTEX
 8
PARTS
 10
  4.4300
 20
  4.6700
 30
0.0
 0
VERTEX
 8
PARTS
 10
  4.4200
 20
  4.7000
 30
0.0
 0
SEQEND
 8
PARTS
 0
POLYLINE
 8
PARTS
 66
1
 10
0.0
 20
0.0
 30
0.0
 0
VERTEX
 8
PARTS
 10
  4.4500
 20
  4.7000
 30
0.0
 0
VERTEX
 8
PARTS
 10
  4.4200
 20
  4.7000
 30
0.0
 0
SEQEND
 8
PARTS
 0
TEXT
 8
PARTTEXT
 10
  8.3000
 20
  5.8186
 30
0.0
 40
  0.0514
 1
J2
 0
TEXT
 8
PARTTEXT
 10
  8.3000
 20
  5.0186
 30
0.0
 40
  0.0514
 1
CON_lcd
 0
LINE
 8
PARTS
 10
  8.0000
 20
  5.6000
 30
0.0
 11
  8.3000
 21
  5.6000
 31
0.0
 0
TEXT
 8
PARTS
 10
  8.2000
 20
  5.6300
 30
0.0
 40
  0.0500
 1
1
 0
LINE
 8
PARTS
 10
  8.0000
 20
  5.5000
 30
0.0
 11
  8.3000
 21
  5.5000
 31
0.0
 0
TEXT
 8
PARTS
 10
  8.2000
 20
  5.5300
 30
0.0
 40
  0.0500
 1
2
 0
LINE
 8
PARTS
 10
  8.0000
 20
  5.4000
 30
0.0
 11
  8.3000
 21
  5.4000
 31
0.0
 0
TEXT
 8
PARTS
 10
  8.2000
 20
  5.4300
 30
0.0
 40
  0.0500
 1
3
 0
LINE
 8
PARTS
 10
  8.0000
 20
  5.3000
 30
0.0
 11
  8.3000
 21
  5.3000
 31
0.0
 0
TEXT
 8
PARTS
 10
  8.2000
 20
  5.3300
 30
0.0
 40
  0.0500
 1
4
 0
POLYLINE
 8
PARTS
 66
1
 70
1
 10
0.0
 20
0.0
 30
0.0
 0
VERTEX
 8
PARTS
 10
  8.3000
 20
  5.7000
 30
0.0
 0
VERTEX
 8
PARTS
 10
  8.5000
 20
  5.7000
 30
0.0
 0
VERTEX
 8
PARTS
 10
  8.5000
 20
  5.2000
 30
0.0
 0
VERTEX
 8
PARTS
 10
  8.3000
 20
  5.2000
 30
0.0
 0
SEQEND
 8
PARTS
 0
TEXT
 8
PARTTEXT
 10
  3.3500
 20
  3.8186
 30
0.0
 40
  0.0514
 1
R9
 0
TEXT
 8
PARTTEXT
 10
  3.4000
 20
  3.6586
 30
0.0
 40
  0.0514
 1
220
 0
LINE
 8
PARTS
 10
  3.2000
 20
  3.5000
 30
0.0
 11
  3.2000
 21
  3.6000
 31
0.0
 0
TEXT
 8
PARTS
 10
  3.1700
 20
  3.4800
 30
0.0
 40
  0.0500
 50
 90.0000
 1

 0
LINE
 8
PARTS
 10
  3.2000
 20
  4.0000
 30
0.0
 11
  3.2000
 21
  3.9000
 31
0.0
 0
TEXT
 8
PARTS
 10
  3.1700
 20
  3.9600
 30
0.0
 40
  0.0500
 50
 90.0000
 1

 0
POLYLINE
 8
PARTS
 66
1
 10
0.0
 20
0.0
 30
0.0
 0
VERTEX
 8
PARTS
 10
  3.0000
 20
  3.9000
 30
0.0
 0
VERTEX
 8
PARTS
 10
  2.9700
 20
  3.9300
 30
0.0
 0
SEQEND
 8
PARTS
 0
POLYLINE
 8
PARTS
 66
1
 10
0.0
 20
0.0
 30
0.0
 0
VERTEX
 8
PARTS
 10
  2.9700
 20
  3.9300
 30
0.0
 0
VERTEX
 8
PARTS
 10
  3.0300
 20
  3.9900
 30
0.0
 0
SEQEND
 8
PARTS
 0
POLYLINE
 8
PARTS
 66
1
 10
0.0
 20
0.0
 30
0.0
 0
VERTEX
 8
PARTS
 10
  3.0300
 20
  3.9900
 30
0.0
 0
VERTEX
 8
PARTS
 10
  2.9700
 20
  4.0500
 30
0.0
 0
SEQEND
 8
PARTS
 0
POLYLINE
 8
PARTS
 66
1
 10
0.0
 20
0.0
 30
0.0
 0
VERTEX
 8
PARTS
 10
  2.9700
 20
  4.0500
 30
0.0
 0
VERTEX
 8
PARTS
 10
  3.0300
 20
  4.1100
 30
0.0
 0
SEQEND
 8
PARTS
 0
POLYLINE
 8
PARTS
 66
1
 10
0.0
 20
0.0
 30
0.0
 0
VERTEX
 8
PARTS
 10
  3.0300
 20
  4.1100
 30
0.0
 0
VERTEX
 8
PARTS
 10
  2.9700
 20
  4.1700
 30
0.0
 0
SEQEND
 8
PARTS
 0
POLYLINE
 8
PARTS
 66
1
 10
0.0
 20
0.0
 30
0.0
 0
VERTEX
 8
PARTS
 10
  2.9700
 20
  4.1700
 30
0.0
 0
VERTEX
 8
PARTS
 10
  3.0000
 20
  4.2000
 30
0.0
 0
SEQEND
 8
PARTS
 0
TEXT
 8
PARTTEXT
 10
  2.3500
 20
  4.4186
 30
0.0
 40
  0.0514
 1
D11
 0
TEXT
 8
PARTTEXT
 10
  2.4000
 20
  4.2586
 30
0.0
 40
  0.0514
 1
3.3
 0
LINE
 8
PARTS
 10
  2.2000
 20
  4.2000
 30
0.0
 11
  2.2000
 21
  4.3000
 31
0.0
 0
LINE
 8
PARTS
 10
  2.2000
 20
  4.6000
 30
0.0
 11
  2.2000
 21
  4.5000
 31
0.0
 0
POLYLINE
 8
PARTS
 66
1
 10
0.0
 20
0.0
 30
0.0
 0
VERTEX
 8
PARTS
 10
  1.9200
 20
  4.5000
 30
0.0
 0
VERTEX
 8
PARTS
 10
  2.0000
 20
  4.6000
 30
0.0
 0
SEQEND
 8
PARTS
 0
POLYLINE
 8
PARTS
 66
1
 10
0.0
 20
0.0
 30
0.0
 0
VERTEX
 8
PARTS
 10
  2.0000
 20
  4.6000
 30
0.0
 0
VERTEX
 8
PARTS
 10
  2.0800
 20
  4.5000
 30
0.0
 0
SEQEND
 8
PARTS
 0
POLYLINE
 8
PARTS
 66
1
 10
0.0
 20
0.0
 30
0.0
 0
VERTEX
 8
PARTS
 10
  2.0800
 20
  4.6000
 30
0.0
 0
VERTEX
 8
PARTS
 10
  1.9200
 20
  4.6000
 30
0.0
 0
SEQEND
 8
PARTS
 0
POLYLINE
 8
PARTS
 66
1
 10
0.0
 20
0.0
 30
0.0
 0
VERTEX
 8
PARTS
 10
  2.0000
 20
  4.7000
 30
0.0
 0
VERTEX
 8
PARTS
 10
  2.0000
 20
  4.6000
 30
0.0
 0
SEQEND
 8
PARTS
 0
POLYLINE
 8
PARTS
 66
1
 10
0.0
 20
0.0
 30
0.0
 0
VERTEX
 8
PARTS
 10
  1.9400
 20
  4.6000
 30
0.0
 0
VERTEX
 8
PARTS
 10
  1.9400
 20
  4.6000
 30
0.0
 0
SEQEND
 8
PARTS
 0
POLYLINE
 8
PARTS
 66
1
 10
0.0
 20
0.0
 30
0.0
 0
VERTEX
 8
PARTS
 10
  1.9400
 20
  4.6000
 30
0.0
 0
VERTEX
 8
PARTS
 10
  1.9400
 20
  4.6000
 30
0.0
 0
SEQEND
 8
PARTS
 0
POLYLINE
 8
PARTS
 66
1
 10
0.0
 20
0.0
 30
0.0
 0
VERTEX
 8
PARTS
 10
  2.0800
 20
  4.5000
 30
0.0
 0
VERTEX
 8
PARTS
 10
  1.9200
 20
  4.5000
 30
0.0
 0
SEQEND
 8
PARTS
 0
POLYLINE
 8
PARTS
 66
1
 10
0.0
 20
0.0
 30
0.0
 0
VERTEX
 8
PARTS
 10
  1.9800
 20
  4.6200
 30
0.0
 0
VERTEX
 8
PARTS
 10
  1.9200
 20
  4.6600
 30
0.0
 0
SEQEND
 8
PARTS
 0
POLYLINE
 8
PARTS
 66
1
 10
0.0
 20
0.0
 30
0.0
 0
VERTEX
 8
PARTS
 10
  1.9300
 20
  4.6300
 30
0.0
 0
VERTEX
 8
PARTS
 10
  1.9200
 20
  4.6600
 30
0.0
 0
SEQEND
 8
PARTS
 0
POLYLINE
 8
PARTS
 66
1
 10
0.0
 20
0.0
 30
0.0
 0
VERTEX
 8
PARTS
 10
  1.9500
 20
  4.6600
 30
0.0
 0
VERTEX
 8
PARTS
 10
  1.9200
 20
  4.6600
 30
0.0
 0
SEQEND
 8
PARTS
 0
POLYLINE
 8
PARTS
 66
1
 10
0.0
 20
0.0
 30
0.0
 0
VERTEX
 8
PARTS
 10
  1.9800
 20
  4.6600
 30
0.0
 0
VERTEX
 8
PARTS
 10
  1.9200
 20
  4.7000
 30
0.0
 0
SEQEND
 8
PARTS
 0
POLYLINE
 8
PARTS
 66
1
 10
0.0
 20
0.0
 30
0.0
 0
VERTEX
 8
PARTS
 10
  1.9300
 20
  4.6700
 30
0.0
 0
VERTEX
 8
PARTS
 10
  1.9200
 20
  4.7000
 30
0.0
 0
SEQEND
 8
PARTS
 0
POLYLINE
 8
PARTS
 66
1
 10
0.0
 20
0.0
 30
0.0
 0
VERTEX
 8
PARTS
 10
  1.9500
 20
  4.7000
 30
0.0
 0
VERTEX
 8
PARTS
 10
  1.9200
 20
  4.7000
 30
0.0
 0
SEQEND
 8
PARTS
 0
TEXT
 8
PARTTEXT
 10
  6.8500
 20
  4.4186
 30
0.0
 40
  0.0514
 1
D2
 0
TEXT
 8
PARTTEXT
 10
  6.9000
 20
  4.2586
 30
0.0
 40
  0.0514
 1
3.3
 0
LINE
 8
PARTS
 10
  6.7000
 20
  4.2000
 30
0.0
 11
  6.7000
 21
  4.3000
 31
0.0
 0
LINE
 8
PARTS
 10
  6.7000
 20
  4.6000
 30
0.0
 11
  6.7000
 21
  4.5000
 31
0.0
 0
POLYLINE
 8
PARTS
 66
1
 10
0.0
 20
0.0
 30
0.0
 0
VERTEX
 8
PARTS
 10
  6.4200
 20
  4.5000
 30
0.0
 0
VERTEX
 8
PARTS
 10
  6.5000
 20
  4.6000
 30
0.0
 0
SEQEND
 8
PARTS
 0
POLYLINE
 8
PARTS
 66
1
 10
0.0
 20
0.0
 30
0.0
 0
VERTEX
 8
PARTS
 10
  6.5000
 20
  4.6000
 30
0.0
 0
VERTEX
 8
PARTS
 10
  6.5800
 20
  4.5000
 30
0.0
 0
SEQEND
 8
PARTS
 0
POLYLINE
 8
PARTS
 66
1
 10
0.0
 20
0.0
 30
0.0
 0
VERTEX
 8
PARTS
 10
  6.5800
 20
  4.6000
 30
0.0
 0
VERTEX
 8
PARTS
 10
  6.4200
 20
  4.6000
 30
0.0
 0
SEQEND
 8
PARTS
 0
POLYLINE
 8
PARTS
 66
1
 10
0.0
 20
0.0
 30
0.0
 0
VERTEX
 8
PARTS
 10
  6.5000
 20
  4.7000
 30
0.0
 0
VERTEX
 8
PARTS
 10
  6.5000
 20
  4.6000
 30
0.0
 0
SEQEND
 8
PARTS
 0
POLYLINE
 8
PARTS
 66
1
 10
0.0
 20
0.0
 30
0.0
 0
VERTEX
 8
PARTS
 10
  6.4400
 20
  4.6000
 30
0.0
 0
VERTEX
 8
PARTS
 10
  6.4400
 20
  4.6000
 30
0.0
 0
SEQEND
 8
PARTS
 0
POLYLINE
 8
PARTS
 66
1
 10
0.0
 20
0.0
 30
0.0
 0
VERTEX
 8
PARTS
 10
  6.4400
 20
  4.6000
 30
0.0
 0
VERTEX
 8
PARTS
 10
  6.4400
 20
  4.6000
 30
0.0
 0
SEQEND
 8
PARTS
 0
POLYLINE
 8
PARTS
 66
1
 10
0.0
 20
0.0
 30
0.0
 0
VERTEX
 8
PARTS
 10
  6.5800
 20
  4.5000
 30
0.0
 0
VERTEX
 8
PARTS
 10
  6.4200
 20
  4.5000
 30
0.0
 0
SEQEND
 8
PARTS
 0
POLYLINE
 8
PARTS
 66
1
 10
0.0
 20
0.0
 30
0.0
 0
VERTEX
 8
PARTS
 10
  6.4800
 20
  4.6200
 30
0.0
 0
VERTEX
 8
PARTS
 10
  6.4200
 20
  4.6600
 30
0.0
 0
SEQEND
 8
PARTS
 0
POLYLINE
 8
PARTS
 66
1
 10
0.0
 20
0.0
 30
0.0
 0
VERTEX
 8
PARTS
 10
  6.4300
 20
  4.6300
 30
0.0
 0
VERTEX
 8
PARTS
 10
  6.4200
 20
  4.6600
 30
0.0
 0
SEQEND
 8
PARTS
 0
POLYLINE
 8
PARTS
 66
1
 10
0.0
 20
0.0
 30
0.0
 0
VERTEX
 8
PARTS
 10
  6.4500
 20
  4.6600
 30
0.0
 0
VERTEX
 8
PARTS
 10
  6.4200
 20
  4.6600
 30
0.0
 0
SEQEND
 8
PARTS
 0
POLYLINE
 8
PARTS
 66
1
 10
0.0
 20
0.0
 30
0.0
 0
VERTEX
 8
PARTS
 10
  6.4800
 20
  4.6600
 30
0.0
 0
VERTEX
 8
PARTS
 10
  6.4200
 20
  4.7000
 30
0.0
 0
SEQEND
 8
PARTS
 0
POLYLINE
 8
PARTS
 66
1
 10
0.0
 20
0.0
 30
0.0
 0
VERTEX
 8
PARTS
 10
  6.4300
 20
  4.6700
 30
0.0
 0
VERTEX
 8
PARTS
 10
  6.4200
 20
  4.7000
 30
0.0
 0
SEQEND
 8
PARTS
 0
POLYLINE
 8
PARTS
 66
1
 10
0.0
 20
0.0
 30
0.0
 0
VERTEX
 8
PARTS
 10
  6.4500
 20
  4.7000
 30
0.0
 0
VERTEX
 8
PARTS
 10
  6.4200
 20
  4.7000
 30
0.0
 0
SEQEND
 8
PARTS
 0
TEXT
 8
PARTTEXT
 10
  4.9000
 20
  6.8786
 30
0.0
 40
  0.0514
 1
J7
 0
TEXT
 8
PARTTEXT
 10
  4.9000
 20
  6.7786
 30
0.0
 40
  0.0514
 1
CON_high_dx
 0
LINE
 8
PARTS
 10
  5.0000
 20
  6.2000
 30
0.0
 11
  5.0000
 21
  6.5000
 31
0.0
 0
TEXT
 8
PARTS
 10
  4.9700
 20
  6.3800
 30
0.0
 40
  0.0500
 50
 90.0000
 1
1
 0
LINE
 8
PARTS
 10
  5.1000
 20
  6.2000
 30
0.0
 11
  5.1000
 21
  6.5000
 31
0.0
 0
TEXT
 8
PARTS
 10
  5.0700
 20
  6.3800
 30
0.0
 40
  0.0500
 50
 90.0000
 1
2
 0
LINE
 8
PARTS
 10
  5.2000
 20
  6.2000
 30
0.0
 11
  5.2000
 21
  6.5000
 31
0.0
 0
TEXT
 8
PARTS
 10
  5.1700
 20
  6.3800
 30
0.0
 40
  0.0500
 50
 90.0000
 1
3
 0
LINE
 8
PARTS
 10
  5.3000
 20
  6.2000
 30
0.0
 11
  5.3000
 21
  6.5000
 31
0.0
 0
TEXT
 8
PARTS
 10
  5.2700
 20
  6.3800
 30
0.0
 40
  0.0500
 50
 90.0000
 1
4
 0
LINE
 8
PARTS
 10
  5.4000
 20
  6.2000
 30
0.0
 11
  5.4000
 21
  6.5000
 31
0.0
 0
TEXT
 8
PARTS
 10
  5.3700
 20
  6.3800
 30
0.0
 40
  0.0500
 50
 90.0000
 1
5
 0
LINE
 8
PARTS
 10
  5.5000
 20
  6.2000
 30
0.0
 11
  5.5000
 21
  6.5000
 31
0.0
 0
TEXT
 8
PARTS
 10
  5.4700
 20
  6.3800
 30
0.0
 40
  0.0500
 50
 90.0000
 1
6
 0
LINE
 8
PARTS
 10
  5.6000
 20
  6.2000
 30
0.0
 11
  5.6000
 21
  6.5000
 31
0.0
 0
TEXT
 8
PARTS
 10
  5.5700
 20
  6.3800
 30
0.0
 40
  0.0500
 50
 90.0000
 1
7
 0
LINE
 8
PARTS
 10
  5.7000
 20
  6.2000
 30
0.0
 11
  5.7000
 21
  6.5000
 31
0.0
 0
TEXT
 8
PARTS
 10
  5.6700
 20
  6.3800
 30
0.0
 40
  0.0500
 50
 90.0000
 1
8
 0
POLYLINE
 8
PARTS
 66
1
 70
1
 10
0.0
 20
0.0
 30
0.0
 0
VERTEX
 8
PARTS
 10
  4.9000
 20
  6.7000
 30
0.0
 0
VERTEX
 8
PARTS
 10
  4.9000
 20
  6.9000
 30
0.0
 0
VERTEX
 8
PARTS
 10
  5.8000
 20
  6.9000
 30
0.0
 0
VERTEX
 8
PARTS
 10
  5.8000
 20
  6.7000
 30
0.0
 0
SEQEND
 8
PARTS
 0
TEXT
 8
PARTTEXT
 10
  1.3000
 20
  3.9186
 30
0.0
 40
  0.0514
 1
R12
 0
TEXT
 8
PARTTEXT
 10
  1.3000
 20
  3.8186
 30
0.0
 40
  0.0514
 1
10k
 0
LINE
 8
PARTS
 10
  1.2000
 20
  4.1000
 30
0.0
 11
  1.2000
 21
  4.0000
 31
0.0
 0
TEXT
 8
PARTS
 10
  1.1700
 20
  4.0600
 30
0.0
 40
  0.0500
 50
 90.0000
 1

 0
LINE
 8
PARTS
 10
  1.2000
 20
  3.6000
 30
0.0
 11
  1.2000
 21
  3.7000
 31
0.0
 0
TEXT
 8
PARTS
 10
  1.1700
 20
  3.5800
 30
0.0
 40
  0.0500
 50
 90.0000
 1

 0
POLYLINE
 8
PARTS
 66
1
 10
0.0
 20
0.0
 30
0.0
 0
VERTEX
 8
PARTS
 10
  1.2000
 20
  4.0000
 30
0.0
 0
VERTEX
 8
PARTS
 10
  1.2300
 20
  3.9700
 30
0.0
 0
SEQEND
 8
PARTS
 0
POLYLINE
 8
PARTS
 66
1
 10
0.0
 20
0.0
 30
0.0
 0
VERTEX
 8
PARTS
 10
  1.2300
 20
  3.9700
 30
0.0
 0
VERTEX
 8
PARTS
 10
  1.1700
 20
  3.9100
 30
0.0
 0
SEQEND
 8
PARTS
 0
POLYLINE
 8
PARTS
 66
1
 10
0.0
 20
0.0
 30
0.0
 0
VERTEX
 8
PARTS
 10
  1.1700
 20
  3.9100
 30
0.0
 0
VERTEX
 8
PARTS
 10
  1.2300
 20
  3.8500
 30
0.0
 0
SEQEND
 8
PARTS
 0
POLYLINE
 8
PARTS
 66
1
 10
0.0
 20
0.0
 30
0.0
 0
VERTEX
 8
PARTS
 10
  1.2300
 20
  3.8500
 30
0.0
 0
VERTEX
 8
PARTS
 10
  1.1700
 20
  3.7900
 30
0.0
 0
SEQEND
 8
PARTS
 0
POLYLINE
 8
PARTS
 66
1
 10
0.0
 20
0.0
 30
0.0
 0
VERTEX
 8
PARTS
 10
  1.1700
 20
  3.7900
 30
0.0
 0
VERTEX
 8
PARTS
 10
  1.2300
 20
  3.7300
 30
0.0
 0
SEQEND
 8
PARTS
 0
POLYLINE
 8
PARTS
 66
1
 10
0.0
 20
0.0
 30
0.0
 0
VERTEX
 8
PARTS
 10
  1.2300
 20
  3.7300
 30
0.0
 0
VERTEX
 8
PARTS
 10
  1.2000
 20
  3.7000
 30
0.0
 0
SEQEND
 8
PARTS
 0
TEXT
 8
PARTTEXT
 10
  5.3500
 20
  3.8186
 30
0.0
 40
  0.0514
 1
R5
 0
TEXT
 8
PARTTEXT
 10
  5.4000
 20
  3.6586
 30
0.0
 40
  0.0514
 1
220
 0
LINE
 8
PARTS
 10
  5.2000
 20
  3.5000
 30
0.0
 11
  5.2000
 21
  3.6000
 31
0.0
 0
TEXT
 8
PARTS
 10
  5.1700
 20
  3.4800
 30
0.0
 40
  0.0500
 50
 90.0000
 1

 0
LINE
 8
PARTS
 10
  5.2000
 20
  4.0000
 30
0.0
 11
  5.2000
 21
  3.9000
 31
0.0
 0
TEXT
 8
PARTS
 10
  5.1700
 20
  3.9600
 30
0.0
 40
  0.0500
 50
 90.0000
 1

 0
POLYLINE
 8
PARTS
 66
1
 10
0.0
 20
0.0
 30
0.0
 0
VERTEX
 8
PARTS
 10
  5.0000
 20
  3.9000
 30
0.0
 0
VERTEX
 8
PARTS
 10
  4.9700
 20
  3.9300
 30
0.0
 0
SEQEND
 8
PARTS
 0
POLYLINE
 8
PARTS
 66
1
 10
0.0
 20
0.0
 30
0.0
 0
VERTEX
 8
PARTS
 10
  4.9700
 20
  3.9300
 30
0.0
 0
VERTEX
 8
PARTS
 10
  5.0300
 20
  3.9900
 30
0.0
 0
SEQEND
 8
PARTS
 0
POLYLINE
 8
PARTS
 66
1
 10
0.0
 20
0.0
 30
0.0
 0
VERTEX
 8
PARTS
 10
  5.0300
 20
  3.9900
 30
0.0
 0
VERTEX
 8
PARTS
 10
  4.9700
 20
  4.0500
 30
0.0
 0
SEQEND
 8
PARTS
 0
POLYLINE
 8
PARTS
 66
1
 10
0.0
 20
0.0
 30
0.0
 0
VERTEX
 8
PARTS
 10
  4.9700
 20
  4.0500
 30
0.0
 0
VERTEX
 8
PARTS
 10
  5.0300
 20
  4.1100
 30
0.0
 0
SEQEND
 8
PARTS
 0
POLYLINE
 8
PARTS
 66
1
 10
0.0
 20
0.0
 30
0.0
 0
VERTEX
 8
PARTS
 10
  5.0300
 20
  4.1100
 30
0.0
 0
VERTEX
 8
PARTS
 10
  4.9700
 20
  4.1700
 30
0.0
 0
SEQEND
 8
PARTS
 0
POLYLINE
 8
PARTS
 66
1
 10
0.0
 20
0.0
 30
0.0
 0
VERTEX
 8
PARTS
 10
  4.9700
 20
  4.1700
 30
0.0
 0
VERTEX
 8
PARTS
 10
  5.0000
 20
  4.2000
 30
0.0
 0
SEQEND
 8
PARTS
 0
TEXT
 8
PARTTEXT
 10
  4.3500
 20
  4.4186
 30
0.0
 40
  0.0514
 1
D7
 0
TEXT
 8
PARTTEXT
 10
  4.4000
 20
  4.2586
 30
0.0
 40
  0.0514
 1
3.3
 0
LINE
 8
PARTS
 10
  4.2000
 20
  4.2000
 30
0.0
 11
  4.2000
 21
  4.3000
 31
0.0
 0
LINE
 8
PARTS
 10
  4.2000
 20
  4.6000
 30
0.0
 11
  4.2000
 21
  4.5000
 31
0.0
 0
POLYLINE
 8
PARTS
 66
1
 10
0.0
 20
0.0
 30
0.0
 0
VERTEX
 8
PARTS
 10
  3.9200
 20
  4.5000
 30
0.0
 0
VERTEX
 8
PARTS
 10
  4.0000
 20
  4.6000
 30
0.0
 0
SEQEND
 8
PARTS
 0
POLYLINE
 8
PARTS
 66
1
 10
0.0
 20
0.0
 30
0.0
 0
VERTEX
 8
PARTS
 10
  4.0000
 20
  4.6000
 30
0.0
 0
VERTEX
 8
PARTS
 10
  4.0800
 20
  4.5000
 30
0.0
 0
SEQEND
 8
PARTS
 0
POLYLINE
 8
PARTS
 66
1
 10
0.0
 20
0.0
 30
0.0
 0
VERTEX
 8
PARTS
 10
  4.0800
 20
  4.6000
 30
0.0
 0
VERTEX
 8
PARTS
 10
  3.9200
 20
  4.6000
 30
0.0
 0
SEQEND
 8
PARTS
 0
POLYLINE
 8
PARTS
 66
1
 10
0.0
 20
0.0
 30
0.0
 0
VERTEX
 8
PARTS
 10
  4.0000
 20
  4.7000
 30
0.0
 0
VERTEX
 8
PARTS
 10
  4.0000
 20
  4.6000
 30
0.0
 0
SEQEND
 8
PARTS
 0
POLYLINE
 8
PARTS
 66
1
 10
0.0
 20
0.0
 30
0.0
 0
VERTEX
 8
PARTS
 10
  3.9400
 20
  4.6000
 30
0.0
 0
VERTEX
 8
PARTS
 10
  3.9400
 20
  4.6000
 30
0.0
 0
SEQEND
 8
PARTS
 0
POLYLINE
 8
PARTS
 66
1
 10
0.0
 20
0.0
 30
0.0
 0
VERTEX
 8
PARTS
 10
  3.9400
 20
  4.6000
 30
0.0
 0
VERTEX
 8
PARTS
 10
  3.9400
 20
  4.6000
 30
0.0
 0
SEQEND
 8
PARTS
 0
POLYLINE
 8
PARTS
 66
1
 10
0.0
 20
0.0
 30
0.0
 0
VERTEX
 8
PARTS
 10
  4.0800
 20
  4.5000
 30
0.0
 0
VERTEX
 8
PARTS
 10
  3.9200
 20
  4.5000
 30
0.0
 0
SEQEND
 8
PARTS
 0
POLYLINE
 8
PARTS
 66
1
 10
0.0
 20
0.0
 30
0.0
 0
VERTEX
 8
PARTS
 10
  3.9800
 20
  4.6200
 30
0.0
 0
VERTEX
 8
PARTS
 10
  3.9200
 20
  4.6600
 30
0.0
 0
SEQEND
 8
PARTS
 0
POLYLINE
 8
PARTS
 66
1
 10
0.0
 20
0.0
 30
0.0
 0
VERTEX
 8
PARTS
 10
  3.9300
 20
  4.6300
 30
0.0
 0
VERTEX
 8
PARTS
 10
  3.9200
 20
  4.6600
 30
0.0
 0
SEQEND
 8
PARTS
 0
POLYLINE
 8
PARTS
 66
1
 10
0.0
 20
0.0
 30
0.0
 0
VERTEX
 8
PARTS
 10
  3.9500
 20
  4.6600
 30
0.0
 0
VERTEX
 8
PARTS
 10
  3.9200
 20
  4.6600
 30
0.0
 0
SEQEND
 8
PARTS
 0
POLYLINE
 8
PARTS
 66
1
 10
0.0
 20
0.0
 30
0.0
 0
VERTEX
 8
PARTS
 10
  3.9800
 20
  4.6600
 30
0.0
 0
VERTEX
 8
PARTS
 10
  3.9200
 20
  4.7000
 30
0.0
 0
SEQEND
 8
PARTS
 0
POLYLINE
 8
PARTS
 66
1
 10
0.0
 20
0.0
 30
0.0
 0
VERTEX
 8
PARTS
 10
  3.9300
 20
  4.6700
 30
0.0
 0
VERTEX
 8
PARTS
 10
  3.9200
 20
  4.7000
 30
0.0
 0
SEQEND
 8
PARTS
 0
POLYLINE
 8
PARTS
 66
1
 10
0.0
 20
0.0
 30
0.0
 0
VERTEX
 8
PARTS
 10
  3.9500
 20
  4.7000
 30
0.0
 0
VERTEX
 8
PARTS
 10
  3.9200
 20
  4.7000
 30
0.0
 0
SEQEND
 8
PARTS
 0
TEXT
 8
PARTTEXT
 10
  4.6000
 20
  1.8686
 30
0.0
 40
  0.0514
 1
J6
 0
TEXT
 8
PARTTEXT
 10
  4.6000
 20
  1.6586
 30
0.0
 40
  0.0514
 1
CON_low_dx
 0
LINE
 8
PARTS
 10
  5.6000
 20
  2.6000
 30
0.0
 11
  5.6000
 21
  2.3000
 31
0.0
 0
TEXT
 8
PARTS
 10
  5.5700
 20
  2.3600
 30
0.0
 40
  0.0500
 50
 90.0000
 1
1
 0
LINE
 8
PARTS
 10
  5.5000
 20
  2.6000
 30
0.0
 11
  5.5000
 21
  2.3000
 31
0.0
 0
TEXT
 8
PARTS
 10
  5.4700
 20
  2.3600
 30
0.0
 40
  0.0500
 50
 90.0000
 1
2
 0
LINE
 8
PARTS
 10
  5.4000
 20
  2.6000
 30
0.0
 11
  5.4000
 21
  2.3000
 31
0.0
 0
TEXT
 8
PARTS
 10
  5.3700
 20
  2.3600
 30
0.0
 40
  0.0500
 50
 90.0000
 1
3
 0
LINE
 8
PARTS
 10
  5.3000
 20
  2.6000
 30
0.0
 11
  5.3000
 21
  2.3000
 31
0.0
 0
TEXT
 8
PARTS
 10
  5.2700
 20
  2.3600
 30
0.0
 40
  0.0500
 50
 90.0000
 1
4
 0
LINE
 8
PARTS
 10
  5.2000
 20
  2.6000
 30
0.0
 11
  5.2000
 21
  2.3000
 31
0.0
 0
TEXT
 8
PARTS
 10
  5.1700
 20
  2.3600
 30
0.0
 40
  0.0500
 50
 90.0000
 1
5
 0
LINE
 8
PARTS
 10
  5.1000
 20
  2.6000
 30
0.0
 11
  5.1000
 21
  2.3000
 31
0.0
 0
TEXT
 8
PARTS
 10
  5.0700
 20
  2.3600
 30
0.0
 40
  0.0500
 50
 90.0000
 1
6
 0
LINE
 8
PARTS
 10
  5.0000
 20
  2.6000
 30
0.0
 11
  5.0000
 21
  2.3000
 31
0.0
 0
TEXT
 8
PARTS
 10
  4.9700
 20
  2.3600
 30
0.0
 40
  0.0500
 50
 90.0000
 1
7
 0
LINE
 8
PARTS
 10
  4.9000
 20
  2.6000
 30
0.0
 11
  4.9000
 21
  2.3000
 31
0.0
 0
TEXT
 8
PARTS
 10
  4.8700
 20
  2.3600
 30
0.0
 40
  0.0500
 50
 90.0000
 1
8
 0
LINE
 8
PARTS
 10
  4.8000
 20
  2.6000
 30
0.0
 11
  4.8000
 21
  2.3000
 31
0.0
 0
TEXT
 8
PARTS
 10
  4.7700
 20
  2.3600
 30
0.0
 40
  0.0500
 50
 90.0000
 1
9
 0
LINE
 8
PARTS
 10
  4.7000
 20
  2.6000
 30
0.0
 11
  4.7000
 21
  2.3000
 31
0.0
 0
TEXT
 8
PARTS
 10
  4.6700
 20
  2.3600
 30
0.0
 40
  0.0500
 50
 90.0000
 1
10
 0
POLYLINE
 8
PARTS
 66
1
 70
1
 10
0.0
 20
0.0
 30
0.0
 0
VERTEX
 8
PARTS
 10
  4.6000
 20
  2.3000
 30
0.0
 0
VERTEX
 8
PARTS
 10
  4.6000
 20
  2.0000
 30
0.0
 0
VERTEX
 8
PARTS
 10
  3.5000
 20
  2.0000
 30
0.0
 0
VERTEX
 8
PARTS
 10
  3.5000
 20
  2.3000
 30
0.0
 0
SEQEND
 8
PARTS
 0
TEXT
 8
PARTTEXT
 10
  2.8500
 20
  3.8186
 30
0.0
 40
  0.0514
 1
R10
 0
TEXT
 8
PARTTEXT
 10
  2.9000
 20
  3.6586
 30
0.0
 40
  0.0514
 1
220
 0
LINE
 8
PARTS
 10
  2.7000
 20
  3.5000
 30
0.0
 11
  2.7000
 21
  3.6000
 31
0.0
 0
TEXT
 8
PARTS
 10
  2.6700
 20
  3.4800
 30
0.0
 40
  0.0500
 50
 90.0000
 1

 0
LINE
 8
PARTS
 10
  2.7000
 20
  4.0000
 30
0.0
 11
  2.7000
 21
  3.9000
 31
0.0
 0
TEXT
 8
PARTS
 10
  2.6700
 20
  3.9600
 30
0.0
 40
  0.0500
 50
 90.0000
 1

 0
POLYLINE
 8
PARTS
 66
1
 10
0.0
 20
0.0
 30
0.0
 0
VERTEX
 8
PARTS
 10
  2.5000
 20
  3.9000
 30
0.0
 0
VERTEX
 8
PARTS
 10
  2.4700
 20
  3.9300
 30
0.0
 0
SEQEND
 8
PARTS
 0
POLYLINE
 8
PARTS
 66
1
 10
0.0
 20
0.0
 30
0.0
 0
VERTEX
 8
PARTS
 10
  2.4700
 20
  3.9300
 30
0.0
 0
VERTEX
 8
PARTS
 10
  2.5300
 20
  3.9900
 30
0.0
 0
SEQEND
 8
PARTS
 0
POLYLINE
 8
PARTS
 66
1
 10
0.0
 20
0.0
 30
0.0
 0
VERTEX
 8
PARTS
 10
  2.5300
 20
  3.9900
 30
0.0
 0
VERTEX
 8
PARTS
 10
  2.4700
 20
  4.0500
 30
0.0
 0
SEQEND
 8
PARTS
 0
POLYLINE
 8
PARTS
 66
1
 10
0.0
 20
0.0
 30
0.0
 0
VERTEX
 8
PARTS
 10
  2.4700
 20
  4.0500
 30
0.0
 0
VERTEX
 8
PARTS
 10
  2.5300
 20
  4.1100
 30
0.0
 0
SEQEND
 8
PARTS
 0
POLYLINE
 8
PARTS
 66
1
 10
0.0
 20
0.0
 30
0.0
 0
VERTEX
 8
PARTS
 10
  2.5300
 20
  4.1100
 30
0.0
 0
VERTEX
 8
PARTS
 10
  2.4700
 20
  4.1700
 30
0.0
 0
SEQEND
 8
PARTS
 0
POLYLINE
 8
PARTS
 66
1
 10
0.0
 20
0.0
 30
0.0
 0
VERTEX
 8
PARTS
 10
  2.4700
 20
  4.1700
 30
0.0
 0
VERTEX
 8
PARTS
 10
  2.5000
 20
  4.2000
 30
0.0
 0
SEQEND
 8
PARTS
 0
TEXT
 8
PARTTEXT
 10
  7.3500
 20
  3.8186
 30
0.0
 40
  0.0514
 1
R1
 0
TEXT
 8
PARTTEXT
 10
  7.4000
 20
  3.6586
 30
0.0
 40
  0.0514
 1
220
 0
LINE
 8
PARTS
 10
  7.2000
 20
  3.5000
 30
0.0
 11
  7.2000
 21
  3.6000
 31
0.0
 0
TEXT
 8
PARTS
 10
  7.1700
 20
  3.4800
 30
0.0
 40
  0.0500
 50
 90.0000
 1

 0
LINE
 8
PARTS
 10
  7.2000
 20
  4.0000
 30
0.0
 11
  7.2000
 21
  3.9000
 31
0.0
 0
TEXT
 8
PARTS
 10
  7.1700
 20
  3.9600
 30
0.0
 40
  0.0500
 50
 90.0000
 1

 0
POLYLINE
 8
PARTS
 66
1
 10
0.0
 20
0.0
 30
0.0
 0
VERTEX
 8
PARTS
 10
  7.0000
 20
  3.9000
 30
0.0
 0
VERTEX
 8
PARTS
 10
  6.9700
 20
  3.9300
 30
0.0
 0
SEQEND
 8
PARTS
 0
POLYLINE
 8
PARTS
 66
1
 10
0.0
 20
0.0
 30
0.0
 0
VERTEX
 8
PARTS
 10
  6.9700
 20
  3.9300
 30
0.0
 0
VERTEX
 8
PARTS
 10
  7.0300
 20
  3.9900
 30
0.0
 0
SEQEND
 8
PARTS
 0
POLYLINE
 8
PARTS
 66
1
 10
0.0
 20
0.0
 30
0.0
 0
VERTEX
 8
PARTS
 10
  7.0300
 20
  3.9900
 30
0.0
 0
VERTEX
 8
PARTS
 10
  6.9700
 20
  4.0500
 30
0.0
 0
SEQEND
 8
PARTS
 0
POLYLINE
 8
PARTS
 66
1
 10
0.0
 20
0.0
 30
0.0
 0
VERTEX
 8
PARTS
 10
  6.9700
 20
  4.0500
 30
0.0
 0
VERTEX
 8
PARTS
 10
  7.0300
 20
  4.1100
 30
0.0
 0
SEQEND
 8
PARTS
 0
POLYLINE
 8
PARTS
 66
1
 10
0.0
 20
0.0
 30
0.0
 0
VERTEX
 8
PARTS
 10
  7.0300
 20
  4.1100
 30
0.0
 0
VERTEX
 8
PARTS
 10
  6.9700
 20
  4.1700
 30
0.0
 0
SEQEND
 8
PARTS
 0
POLYLINE
 8
PARTS
 66
1
 10
0.0
 20
0.0
 30
0.0
 0
VERTEX
 8
PARTS
 10
  6.9700
 20
  4.1700
 30
0.0
 0
VERTEX
 8
PARTS
 10
  7.0000
 20
  4.2000
 30
0.0
 0
SEQEND
 8
PARTS
 0
TEXT
 8
PARTTEXT
 10
  6.3500
 20
  4.4186
 30
0.0
 40
  0.0514
 1
D3
 0
TEXT
 8
PARTTEXT
 10
  6.4000
 20
  4.2586
 30
0.0
 40
  0.0514
 1
3.3
 0
LINE
 8
PARTS
 10
  6.2000
 20
  4.2000
 30
0.0
 11
  6.2000
 21
  4.3000
 31
0.0
 0
LINE
 8
PARTS
 10
  6.2000
 20
  4.6000
 30
0.0
 11
  6.2000
 21
  4.5000
 31
0.0
 0
POLYLINE
 8
PARTS
 66
1
 10
0.0
 20
0.0
 30
0.0
 0
VERTEX
 8
PARTS
 10
  5.9200
 20
  4.5000
 30
0.0
 0
VERTEX
 8
PARTS
 10
  6.0000
 20
  4.6000
 30
0.0
 0
SEQEND
 8
PARTS
 0
POLYLINE
 8
PARTS
 66
1
 10
0.0
 20
0.0
 30
0.0
 0
VERTEX
 8
PARTS
 10
  6.0000
 20
  4.6000
 30
0.0
 0
VERTEX
 8
PARTS
 10
  6.0800
 20
  4.5000
 30
0.0
 0
SEQEND
 8
PARTS
 0
POLYLINE
 8
PARTS
 66
1
 10
0.0
 20
0.0
 30
0.0
 0
VERTEX
 8
PARTS
 10
  6.0800
 20
  4.6000
 30
0.0
 0
VERTEX
 8
PARTS
 10
  5.9200
 20
  4.6000
 30
0.0
 0
SEQEND
 8
PARTS
 0
POLYLINE
 8
PARTS
 66
1
 10
0.0
 20
0.0
 30
0.0
 0
VERTEX
 8
PARTS
 10
  6.0000
 20
  4.7000
 30
0.0
 0
VERTEX
 8
PARTS
 10
  6.0000
 20
  4.6000
 30
0.0
 0
SEQEND
 8
PARTS
 0
POLYLINE
 8
PARTS
 66
1
 10
0.0
 20
0.0
 30
0.0
 0
VERTEX
 8
PARTS
 10
  5.9400
 20
  4.6000
 30
0.0
 0
VERTEX
 8
PARTS
 10
  5.9400
 20
  4.6000
 30
0.0
 0
SEQEND
 8
PARTS
 0
POLYLINE
 8
PARTS
 66
1
 10
0.0
 20
0.0
 30
0.0
 0
VERTEX
 8
PARTS
 10
  5.9400
 20
  4.6000
 30
0.0
 0
VERTEX
 8
PARTS
 10
  5.9400
 20
  4.6000
 30
0.0
 0
SEQEND
 8
PARTS
 0
POLYLINE
 8
PARTS
 66
1
 10
0.0
 20
0.0
 30
0.0
 0
VERTEX
 8
PARTS
 10
  6.0800
 20
  4.5000
 30
0.0
 0
VERTEX
 8
PARTS
 10
  5.9200
 20
  4.5000
 30
0.0
 0
SEQEND
 8
PARTS
 0
POLYLINE
 8
PARTS
 66
1
 10
0.0
 20
0.0
 30
0.0
 0
VERTEX
 8
PARTS
 10
  5.9800
 20
  4.6200
 30
0.0
 0
VERTEX
 8
PARTS
 10
  5.9200
 20
  4.6600
 30
0.0
 0
SEQEND
 8
PARTS
 0
POLYLINE
 8
PARTS
 66
1
 10
0.0
 20
0.0
 30
0.0
 0
VERTEX
 8
PARTS
 10
  5.9300
 20
  4.6300
 30
0.0
 0
VERTEX
 8
PARTS
 10
  5.9200
 20
  4.6600
 30
0.0
 0
SEQEND
 8
PARTS
 0
POLYLINE
 8
PARTS
 66
1
 10
0.0
 20
0.0
 30
0.0
 0
VERTEX
 8
PARTS
 10
  5.9500
 20
  4.6600
 30
0.0
 0
VERTEX
 8
PARTS
 10
  5.9200
 20
  4.6600
 30
0.0
 0
SEQEND
 8
PARTS
 0
POLYLINE
 8
PARTS
 66
1
 10
0.0
 20
0.0
 30
0.0
 0
VERTEX
 8
PARTS
 10
  5.9800
 20
  4.6600
 30
0.0
 0
VERTEX
 8
PARTS
 10
  5.9200
 20
  4.7000
 30
0.0
 0
SEQEND
 8
PARTS
 0
POLYLINE
 8
PARTS
 66
1
 10
0.0
 20
0.0
 30
0.0
 0
VERTEX
 8
PARTS
 10
  5.9300
 20
  4.6700
 30
0.0
 0
VERTEX
 8
PARTS
 10
  5.9200
 20
  4.7000
 30
0.0
 0
SEQEND
 8
PARTS
 0
POLYLINE
 8
PARTS
 66
1
 10
0.0
 20
0.0
 30
0.0
 0
VERTEX
 8
PARTS
 10
  5.9500
 20
  4.7000
 30
0.0
 0
VERTEX
 8
PARTS
 10
  5.9200
 20
  4.7000
 30
0.0
 0
SEQEND
 8
PARTS
 0
TEXT
 8
PARTTEXT
 10
  1.8000
 20
  3.9186
 30
0.0
 40
  0.0514
 1
R13
 0
TEXT
 8
PARTTEXT
 10
  1.8000
 20
  3.8186
 30
0.0
 40
  0.0514
 1
47k
 0
LINE
 8
PARTS
 10
  1.7000
 20
  4.1000
 30
0.0
 11
  1.7000
 21
  4.0000
 31
0.0
 0
TEXT
 8
PARTS
 10
  1.6700
 20
  4.0600
 30
0.0
 40
  0.0500
 50
 90.0000
 1

 0
LINE
 8
PARTS
 10
  1.7000
 20
  3.6000
 30
0.0
 11
  1.7000
 21
  3.7000
 31
0.0
 0
TEXT
 8
PARTS
 10
  1.6700
 20
  3.5800
 30
0.0
 40
  0.0500
 50
 90.0000
 1

 0
POLYLINE
 8
PARTS
 66
1
 10
0.0
 20
0.0
 30
0.0
 0
VERTEX
 8
PARTS
 10
  1.7000
 20
  4.0000
 30
0.0
 0
VERTEX
 8
PARTS
 10
  1.7300
 20
  3.9700
 30
0.0
 0
SEQEND
 8
PARTS
 0
POLYLINE
 8
PARTS
 66
1
 10
0.0
 20
0.0
 30
0.0
 0
VERTEX
 8
PARTS
 10
  1.7300
 20
  3.9700
 30
0.0
 0
VERTEX
 8
PARTS
 10
  1.6700
 20
  3.9100
 30
0.0
 0
SEQEND
 8
PARTS
 0
POLYLINE
 8
PARTS
 66
1
 10
0.0
 20
0.0
 30
0.0
 0
VERTEX
 8
PARTS
 10
  1.6700
 20
  3.9100
 30
0.0
 0
VERTEX
 8
PARTS
 10
  1.7300
 20
  3.8500
 30
0.0
 0
SEQEND
 8
PARTS
 0
POLYLINE
 8
PARTS
 66
1
 10
0.0
 20
0.0
 30
0.0
 0
VERTEX
 8
PARTS
 10
  1.7300
 20
  3.8500
 30
0.0
 0
VERTEX
 8
PARTS
 10
  1.6700
 20
  3.7900
 30
0.0
 0
SEQEND
 8
PARTS
 0
POLYLINE
 8
PARTS
 66
1
 10
0.0
 20
0.0
 30
0.0
 0
VERTEX
 8
PARTS
 10
  1.6700
 20
  3.7900
 30
0.0
 0
VERTEX
 8
PARTS
 10
  1.7300
 20
  3.7300
 30
0.0
 0
SEQEND
 8
PARTS
 0
POLYLINE
 8
PARTS
 66
1
 10
0.0
 20
0.0
 30
0.0
 0
VERTEX
 8
PARTS
 10
  1.7300
 20
  3.7300
 30
0.0
 0
VERTEX
 8
PARTS
 10
  1.7000
 20
  3.7000
 30
0.0
 0
SEQEND
 8
PARTS
 0
TEXT
 8
PARTTEXT
 10
  4.8500
 20
  3.8186
 30
0.0
 40
  0.0514
 1
R6
 0
TEXT
 8
PARTTEXT
 10
  4.9000
 20
  3.6586
 30
0.0
 40
  0.0514
 1
220
 0
LINE
 8
PARTS
 10
  4.7000
 20
  3.5000
 30
0.0
 11
  4.7000
 21
  3.6000
 31
0.0
 0
TEXT
 8
PARTS
 10
  4.6700
 20
  3.4800
 30
0.0
 40
  0.0500
 50
 90.0000
 1

 0
LINE
 8
PARTS
 10
  4.7000
 20
  4.0000
 30
0.0
 11
  4.7000
 21
  3.9000
 31
0.0
 0
TEXT
 8
PARTS
 10
  4.6700
 20
  3.9600
 30
0.0
 40
  0.0500
 50
 90.0000
 1

 0
POLYLINE
 8
PARTS
 66
1
 10
0.0
 20
0.0
 30
0.0
 0
VERTEX
 8
PARTS
 10
  4.5000
 20
  3.9000
 30
0.0
 0
VERTEX
 8
PARTS
 10
  4.4700
 20
  3.9300
 30
0.0
 0
SEQEND
 8
PARTS
 0
POLYLINE
 8
PARTS
 66
1
 10
0.0
 20
0.0
 30
0.0
 0
VERTEX
 8
PARTS
 10
  4.4700
 20
  3.9300
 30
0.0
 0
VERTEX
 8
PARTS
 10
  4.5300
 20
  3.9900
 30
0.0
 0
SEQEND
 8
PARTS
 0
POLYLINE
 8
PARTS
 66
1
 10
0.0
 20
0.0
 30
0.0
 0
VERTEX
 8
PARTS
 10
  4.5300
 20
  3.9900
 30
0.0
 0
VERTEX
 8
PARTS
 10
  4.4700
 20
  4.0500
 30
0.0
 0
SEQEND
 8
PARTS
 0
POLYLINE
 8
PARTS
 66
1
 10
0.0
 20
0.0
 30
0.0
 0
VERTEX
 8
PARTS
 10
  4.4700
 20
  4.0500
 30
0.0
 0
VERTEX
 8
PARTS
 10
  4.5300
 20
  4.1100
 30
0.0
 0
SEQEND
 8
PARTS
 0
POLYLINE
 8
PARTS
 66
1
 10
0.0
 20
0.0
 30
0.0
 0
VERTEX
 8
PARTS
 10
  4.5300
 20
  4.1100
 30
0.0
 0
VERTEX
 8
PARTS
 10
  4.4700
 20
  4.1700
 30
0.0
 0
SEQEND
 8
PARTS
 0
POLYLINE
 8
PARTS
 66
1
 10
0.0
 20
0.0
 30
0.0
 0
VERTEX
 8
PARTS
 10
  4.4700
 20
  4.1700
 30
0.0
 0
VERTEX
 8
PARTS
 10
  4.5000
 20
  4.2000
 30
0.0
 0
SEQEND
 8
PARTS
 0
TEXT
 8
PARTTEXT
 10
  3.8500
 20
  4.4186
 30
0.0
 40
  0.0514
 1
D8
 0
TEXT
 8
PARTTEXT
 10
  3.9000
 20
  4.2586
 30
0.0
 40
  0.0514
 1
3.3
 0
LINE
 8
PARTS
 10
  3.7000
 20
  4.2000
 30
0.0
 11
  3.7000
 21
  4.3000
 31
0.0
 0
LINE
 8
PARTS
 10
  3.7000
 20
  4.6000
 30
0.0
 11
  3.7000
 21
  4.5000
 31
0.0
 0
POLYLINE
 8
PARTS
 66
1
 10
0.0
 20
0.0
 30
0.0
 0
VERTEX
 8
PARTS
 10
  3.4200
 20
  4.5000
 30
0.0
 0
VERTEX
 8
PARTS
 10
  3.5000
 20
  4.6000
 30
0.0
 0
SEQEND
 8
PARTS
 0
POLYLINE
 8
PARTS
 66
1
 10
0.0
 20
0.0
 30
0.0
 0
VERTEX
 8
PARTS
 10
  3.5000
 20
  4.6000
 30
0.0
 0
VERTEX
 8
PARTS
 10
  3.5800
 20
  4.5000
 30
0.0
 0
SEQEND
 8
PARTS
 0
POLYLINE
 8
PARTS
 66
1
 10
0.0
 20
0.0
 30
0.0
 0
VERTEX
 8
PARTS
 10
  3.5800
 20
  4.6000
 30
0.0
 0
VERTEX
 8
PARTS
 10
  3.4200
 20
  4.6000
 30
0.0
 0
SEQEND
 8
PARTS
 0
POLYLINE
 8
PARTS
 66
1
 10
0.0
 20
0.0
 30
0.0
 0
VERTEX
 8
PARTS
 10
  3.5000
 20
  4.7000
 30
0.0
 0
VERTEX
 8
PARTS
 10
  3.5000
 20
  4.6000
 30
0.0
 0
SEQEND
 8
PARTS
 0
POLYLINE
 8
PARTS
 66
1
 10
0.0
 20
0.0
 30
0.0
 0
VERTEX
 8
PARTS
 10
  3.4400
 20
  4.6000
 30
0.0
 0
VERTEX
 8
PARTS
 10
  3.4400
 20
  4.6000
 30
0.0
 0
SEQEND
 8
PARTS
 0
POLYLINE
 8
PARTS
 66
1
 10
0.0
 20
0.0
 30
0.0
 0
VERTEX
 8
PARTS
 10
  3.4400
 20
  4.6000
 30
0.0
 0
VERTEX
 8
PARTS
 10
  3.4400
 20
  4.6000
 30
0.0
 0
SEQEND
 8
PARTS
 0
POLYLINE
 8
PARTS
 66
1
 10
0.0
 20
0.0
 30
0.0
 0
VERTEX
 8
PARTS
 10
  3.5800
 20
  4.5000
 30
0.0
 0
VERTEX
 8
PARTS
 10
  3.4200
 20
  4.5000
 30
0.0
 0
SEQEND
 8
PARTS
 0
POLYLINE
 8
PARTS
 66
1
 10
0.0
 20
0.0
 30
0.0
 0
VERTEX
 8
PARTS
 10
  3.4800
 20
  4.6200
 30
0.0
 0
VERTEX
 8
PARTS
 10
  3.4200
 20
  4.6600
 30
0.0
 0
SEQEND
 8
PARTS
 0
POLYLINE
 8
PARTS
 66
1
 10
0.0
 20
0.0
 30
0.0
 0
VERTEX
 8
PARTS
 10
  3.4300
 20
  4.6300
 30
0.0
 0
VERTEX
 8
PARTS
 10
  3.4200
 20
  4.6600
 30
0.0
 0
SEQEND
 8
PARTS
 0
POLYLINE
 8
PARTS
 66
1
 10
0.0
 20
0.0
 30
0.0
 0
VERTEX
 8
PARTS
 10
  3.4500
 20
  4.6600
 30
0.0
 0
VERTEX
 8
PARTS
 10
  3.4200
 20
  4.6600
 30
0.0
 0
SEQEND
 8
PARTS
 0
POLYLINE
 8
PARTS
 66
1
 10
0.0
 20
0.0
 30
0.0
 0
VERTEX
 8
PARTS
 10
  3.4800
 20
  4.6600
 30
0.0
 0
VERTEX
 8
PARTS
 10
  3.4200
 20
  4.7000
 30
0.0
 0
SEQEND
 8
PARTS
 0
POLYLINE
 8
PARTS
 66
1
 10
0.0
 20
0.0
 30
0.0
 0
VERTEX
 8
PARTS
 10
  3.4300
 20
  4.6700
 30
0.0
 0
VERTEX
 8
PARTS
 10
  3.4200
 20
  4.7000
 30
0.0
 0
SEQEND
 8
PARTS
 0
POLYLINE
 8
PARTS
 66
1
 10
0.0
 20
0.0
 30
0.0
 0
VERTEX
 8
PARTS
 10
  3.4500
 20
  4.7000
 30
0.0
 0
VERTEX
 8
PARTS
 10
  3.4200
 20
  4.7000
 30
0.0
 0
SEQEND
 8
PARTS
 0
TEXT
 8
PARTTEXT
 10
  2.3500
 20
  3.8186
 30
0.0
 40
  0.0514
 1
R11
 0
TEXT
 8
PARTTEXT
 10
  2.4000
 20
  3.6586
 30
0.0
 40
  0.0514
 1
220
 0
LINE
 8
PARTS
 10
  2.2000
 20
  3.5000
 30
0.0
 11
  2.2000
 21
  3.6000
 31
0.0
 0
TEXT
 8
PARTS
 10
  2.1700
 20
  3.4800
 30
0.0
 40
  0.0500
 50
 90.0000
 1

 0
LINE
 8
PARTS
 10
  2.2000
 20
  4.0000
 30
0.0
 11
  2.2000
 21
  3.9000
 31
0.0
 0
TEXT
 8
PARTS
 10
  2.1700
 20
  3.9600
 30
0.0
 40
  0.0500
 50
 90.0000
 1

 0
POLYLINE
 8
PARTS
 66
1
 10
0.0
 20
0.0
 30
0.0
 0
VERTEX
 8
PARTS
 10
  2.0000
 20
  3.9000
 30
0.0
 0
VERTEX
 8
PARTS
 10
  1.9700
 20
  3.9300
 30
0.0
 0
SEQEND
 8
PARTS
 0
POLYLINE
 8
PARTS
 66
1
 10
0.0
 20
0.0
 30
0.0
 0
VERTEX
 8
PARTS
 10
  1.9700
 20
  3.9300
 30
0.0
 0
VERTEX
 8
PARTS
 10
  2.0300
 20
  3.9900
 30
0.0
 0
SEQEND
 8
PARTS
 0
POLYLINE
 8
PARTS
 66
1
 10
0.0
 20
0.0
 30
0.0
 0
VERTEX
 8
PARTS
 10
  2.0300
 20
  3.9900
 30
0.0
 0
VERTEX
 8
PARTS
 10
  1.9700
 20
  4.0500
 30
0.0
 0
SEQEND
 8
PARTS
 0
POLYLINE
 8
PARTS
 66
1
 10
0.0
 20
0.0
 30
0.0
 0
VERTEX
 8
PARTS
 10
  1.9700
 20
  4.0500
 30
0.0
 0
VERTEX
 8
PARTS
 10
  2.0300
 20
  4.1100
 30
0.0
 0
SEQEND
 8
PARTS
 0
POLYLINE
 8
PARTS
 66
1
 10
0.0
 20
0.0
 30
0.0
 0
VERTEX
 8
PARTS
 10
  2.0300
 20
  4.1100
 30
0.0
 0
VERTEX
 8
PARTS
 10
  1.9700
 20
  4.1700
 30
0.0
 0
SEQEND
 8
PARTS
 0
POLYLINE
 8
PARTS
 66
1
 10
0.0
 20
0.0
 30
0.0
 0
VERTEX
 8
PARTS
 10
  1.9700
 20
  4.1700
 30
0.0
 0
VERTEX
 8
PARTS
 10
  2.0000
 20
  4.2000
 30
0.0
 0
SEQEND
 8
PARTS
 0
TEXT
 8
PARTTEXT
 10
  6.8500
 20
  3.8186
 30
0.0
 40
  0.0514
 1
R2
 0
TEXT
 8
PARTTEXT
 10
  6.9000
 20
  3.6586
 30
0.0
 40
  0.0514
 1
220
 0
LINE
 8
PARTS
 10
  6.7000
 20
  3.5000
 30
0.0
 11
  6.7000
 21
  3.6000
 31
0.0
 0
TEXT
 8
PARTS
 10
  6.6700
 20
  3.4800
 30
0.0
 40
  0.0500
 50
 90.0000
 1

 0
LINE
 8
PARTS
 10
  6.7000
 20
  4.0000
 30
0.0
 11
  6.7000
 21
  3.9000
 31
0.0
 0
TEXT
 8
PARTS
 10
  6.6700
 20
  3.9600
 30
0.0
 40
  0.0500
 50
 90.0000
 1

 0
POLYLINE
 8
PARTS
 66
1
 10
0.0
 20
0.0
 30
0.0
 0
VERTEX
 8
PARTS
 10
  6.5000
 20
  3.9000
 30
0.0
 0
VERTEX
 8
PARTS
 10
  6.4700
 20
  3.9300
 30
0.0
 0
SEQEND
 8
PARTS
 0
POLYLINE
 8
PARTS
 66
1
 10
0.0
 20
0.0
 30
0.0
 0
VERTEX
 8
PARTS
 10
  6.4700
 20
  3.9300
 30
0.0
 0
VERTEX
 8
PARTS
 10
  6.5300
 20
  3.9900
 30
0.0
 0
SEQEND
 8
PARTS
 0
POLYLINE
 8
PARTS
 66
1
 10
0.0
 20
0.0
 30
0.0
 0
VERTEX
 8
PARTS
 10
  6.5300
 20
  3.9900
 30
0.0
 0
VERTEX
 8
PARTS
 10
  6.4700
 20
  4.0500
 30
0.0
 0
SEQEND
 8
PARTS
 0
POLYLINE
 8
PARTS
 66
1
 10
0.0
 20
0.0
 30
0.0
 0
VERTEX
 8
PARTS
 10
  6.4700
 20
  4.0500
 30
0.0
 0
VERTEX
 8
PARTS
 10
  6.5300
 20
  4.1100
 30
0.0
 0
SEQEND
 8
PARTS
 0
POLYLINE
 8
PARTS
 66
1
 10
0.0
 20
0.0
 30
0.0
 0
VERTEX
 8
PARTS
 10
  6.5300
 20
  4.1100
 30
0.0
 0
VERTEX
 8
PARTS
 10
  6.4700
 20
  4.1700
 30
0.0
 0
SEQEND
 8
PARTS
 0
POLYLINE
 8
PARTS
 66
1
 10
0.0
 20
0.0
 30
0.0
 0
VERTEX
 8
PARTS
 10
  6.4700
 20
  4.1700
 30
0.0
 0
VERTEX
 8
PARTS
 10
  6.5000
 20
  4.2000
 30
0.0
 0
SEQEND
 8
PARTS
 0
TEXT
 8
PARTTEXT
 10
  5.8500
 20
  4.4186
 30
0.0
 40
  0.0514
 1
D4
 0
TEXT
 8
PARTTEXT
 10
  5.9000
 20
  4.2586
 30
0.0
 40
  0.0514
 1
3.3
 0
LINE
 8
PARTS
 10
  5.7000
 20
  4.2000
 30
0.0
 11
  5.7000
 21
  4.3000
 31
0.0
 0
LINE
 8
PARTS
 10
  5.7000
 20
  4.6000
 30
0.0
 11
  5.7000
 21
  4.5000
 31
0.0
 0
POLYLINE
 8
PARTS
 66
1
 10
0.0
 20
0.0
 30
0.0
 0
VERTEX
 8
PARTS
 10
  5.4200
 20
  4.5000
 30
0.0
 0
VERTEX
 8
PARTS
 10
  5.5000
 20
  4.6000
 30
0.0
 0
SEQEND
 8
PARTS
 0
POLYLINE
 8
PARTS
 66
1
 10
0.0
 20
0.0
 30
0.0
 0
VERTEX
 8
PARTS
 10
  5.5000
 20
  4.6000
 30
0.0
 0
VERTEX
 8
PARTS
 10
  5.5800
 20
  4.5000
 30
0.0
 0
SEQEND
 8
PARTS
 0
POLYLINE
 8
PARTS
 66
1
 10
0.0
 20
0.0
 30
0.0
 0
VERTEX
 8
PARTS
 10
  5.5800
 20
  4.6000
 30
0.0
 0
VERTEX
 8
PARTS
 10
  5.4200
 20
  4.6000
 30
0.0
 0
SEQEND
 8
PARTS
 0
POLYLINE
 8
PARTS
 66
1
 10
0.0
 20
0.0
 30
0.0
 0
VERTEX
 8
PARTS
 10
  5.5000
 20
  4.7000
 30
0.0
 0
VERTEX
 8
PARTS
 10
  5.5000
 20
  4.6000
 30
0.0
 0
SEQEND
 8
PARTS
 0
POLYLINE
 8
PARTS
 66
1
 10
0.0
 20
0.0
 30
0.0
 0
VERTEX
 8
PARTS
 10
  5.4400
 20
  4.6000
 30
0.0
 0
VERTEX
 8
PARTS
 10
  5.4400
 20
  4.6000
 30
0.0
 0
SEQEND
 8
PARTS
 0
POLYLINE
 8
PARTS
 66
1
 10
0.0
 20
0.0
 30
0.0
 0
VERTEX
 8
PARTS
 10
  5.4400
 20
  4.6000
 30
0.0
 0
VERTEX
 8
PARTS
 10
  5.4400
 20
  4.6000
 30
0.0
 0
SEQEND
 8
PARTS
 0
POLYLINE
 8
PARTS
 66
1
 10
0.0
 20
0.0
 30
0.0
 0
VERTEX
 8
PARTS
 10
  5.5800
 20
  4.5000
 30
0.0
 0
VERTEX
 8
PARTS
 10
  5.4200
 20
  4.5000
 30
0.0
 0
SEQEND
 8
PARTS
 0
POLYLINE
 8
PARTS
 66
1
 10
0.0
 20
0.0
 30
0.0
 0
VERTEX
 8
PARTS
 10
  5.4800
 20
  4.6200
 30
0.0
 0
VERTEX
 8
PARTS
 10
  5.4200
 20
  4.6600
 30
0.0
 0
SEQEND
 8
PARTS
 0
POLYLINE
 8
PARTS
 66
1
 10
0.0
 20
0.0
 30
0.0
 0
VERTEX
 8
PARTS
 10
  5.4300
 20
  4.6300
 30
0.0
 0
VERTEX
 8
PARTS
 10
  5.4200
 20
  4.6600
 30
0.0
 0
SEQEND
 8
PARTS
 0
POLYLINE
 8
PARTS
 66
1
 10
0.0
 20
0.0
 30
0.0
 0
VERTEX
 8
PARTS
 10
  5.4500
 20
  4.6600
 30
0.0
 0
VERTEX
 8
PARTS
 10
  5.4200
 20
  4.6600
 30
0.0
 0
SEQEND
 8
PARTS
 0
POLYLINE
 8
PARTS
 66
1
 10
0.0
 20
0.0
 30
0.0
 0
VERTEX
 8
PARTS
 10
  5.4800
 20
  4.6600
 30
0.0
 0
VERTEX
 8
PARTS
 10
  5.4200
 20
  4.7000
 30
0.0
 0
SEQEND
 8
PARTS
 0
POLYLINE
 8
PARTS
 66
1
 10
0.0
 20
0.0
 30
0.0
 0
VERTEX
 8
PARTS
 10
  5.4300
 20
  4.6700
 30
0.0
 0
VERTEX
 8
PARTS
 10
  5.4200
 20
  4.7000
 30
0.0
 0
SEQEND
 8
PARTS
 0
POLYLINE
 8
PARTS
 66
1
 10
0.0
 20
0.0
 30
0.0
 0
VERTEX
 8
PARTS
 10
  5.4500
 20
  4.7000
 30
0.0
 0
VERTEX
 8
PARTS
 10
  5.4200
 20
  4.7000
 30
0.0
 0
SEQEND
 8
PARTS
 0
TEXT
 8
PARTTEXT
 10
  4.3500
 20
  3.8186
 30
0.0
 40
  0.0514
 1
R7
 0
TEXT
 8
PARTTEXT
 10
  4.4000
 20
  3.6586
 30
0.0
 40
  0.0514
 1
220
 0
LINE
 8
PARTS
 10
  4.2000
 20
  3.5000
 30
0.0
 11
  4.2000
 21
  3.6000
 31
0.0
 0
TEXT
 8
PARTS
 10
  4.1700
 20
  3.4800
 30
0.0
 40
  0.0500
 50
 90.0000
 1

 0
LINE
 8
PARTS
 10
  4.2000
 20
  4.0000
 30
0.0
 11
  4.2000
 21
  3.9000
 31
0.0
 0
TEXT
 8
PARTS
 10
  4.1700
 20
  3.9600
 30
0.0
 40
  0.0500
 50
 90.0000
 1

 0
POLYLINE
 8
PARTS
 66
1
 10
0.0
 20
0.0
 30
0.0
 0
VERTEX
 8
PARTS
 10
  4.0000
 20
  3.9000
 30
0.0
 0
VERTEX
 8
PARTS
 10
  3.9700
 20
  3.9300
 30
0.0
 0
SEQEND
 8
PARTS
 0
POLYLINE
 8
PARTS
 66
1
 10
0.0
 20
0.0
 30
0.0
 0
VERTEX
 8
PARTS
 10
  3.9700
 20
  3.9300
 30
0.0
 0
VERTEX
 8
PARTS
 10
  4.0300
 20
  3.9900
 30
0.0
 0
SEQEND
 8
PARTS
 0
POLYLINE
 8
PARTS
 66
1
 10
0.0
 20
0.0
 30
0.0
 0
VERTEX
 8
PARTS
 10
  4.0300
 20
  3.9900
 30
0.0
 0
VERTEX
 8
PARTS
 10
  3.9700
 20
  4.0500
 30
0.0
 0
SEQEND
 8
PARTS
 0
POLYLINE
 8
PARTS
 66
1
 10
0.0
 20
0.0
 30
0.0
 0
VERTEX
 8
PARTS
 10
  3.9700
 20
  4.0500
 30
0.0
 0
VERTEX
 8
PARTS
 10
  4.0300
 20
  4.1100
 30
0.0
 0
SEQEND
 8
PARTS
 0
POLYLINE
 8
PARTS
 66
1
 10
0.0
 20
0.0
 30
0.0
 0
VERTEX
 8
PARTS
 10
  4.0300
 20
  4.1100
 30
0.0
 0
VERTEX
 8
PARTS
 10
  3.9700
 20
  4.1700
 30
0.0
 0
SEQEND
 8
PARTS
 0
POLYLINE
 8
PARTS
 66
1
 10
0.0
 20
0.0
 30
0.0
 0
VERTEX
 8
PARTS
 10
  3.9700
 20
  4.1700
 30
0.0
 0
VERTEX
 8
PARTS
 10
  4.0000
 20
  4.2000
 30
0.0
 0
SEQEND
 8
PARTS
 0
TEXT
 8
PARTTEXT
 10
  3.3500
 20
  4.4186
 30
0.0
 40
  0.0514
 1
D9
 0
TEXT
 8
PARTTEXT
 10
  3.4000
 20
  4.2586
 30
0.0
 40
  0.0514
 1
3.3
 0
LINE
 8
PARTS
 10
  3.2000
 20
  4.2000
 30
0.0
 11
  3.2000
 21
  4.3000
 31
0.0
 0
LINE
 8
PARTS
 10
  3.2000
 20
  4.6000
 30
0.0
 11
  3.2000
 21
  4.5000
 31
0.0
 0
POLYLINE
 8
PARTS
 66
1
 10
0.0
 20
0.0
 30
0.0
 0
VERTEX
 8
PARTS
 10
  2.9200
 20
  4.5000
 30
0.0
 0
VERTEX
 8
PARTS
 10
  3.0000
 20
  4.6000
 30
0.0
 0
SEQEND
 8
PARTS
 0
POLYLINE
 8
PARTS
 66
1
 10
0.0
 20
0.0
 30
0.0
 0
VERTEX
 8
PARTS
 10
  3.0000
 20
  4.6000
 30
0.0
 0
VERTEX
 8
PARTS
 10
  3.0800
 20
  4.5000
 30
0.0
 0
SEQEND
 8
PARTS
 0
POLYLINE
 8
PARTS
 66
1
 10
0.0
 20
0.0
 30
0.0
 0
VERTEX
 8
PARTS
 10
  3.0800
 20
  4.6000
 30
0.0
 0
VERTEX
 8
PARTS
 10
  2.9200
 20
  4.6000
 30
0.0
 0
SEQEND
 8
PARTS
 0
POLYLINE
 8
PARTS
 66
1
 10
0.0
 20
0.0
 30
0.0
 0
VERTEX
 8
PARTS
 10
  3.0000
 20
  4.7000
 30
0.0
 0
VERTEX
 8
PARTS
 10
  3.0000
 20
  4.6000
 30
0.0
 0
SEQEND
 8
PARTS
 0
POLYLINE
 8
PARTS
 66
1
 10
0.0
 20
0.0
 30
0.0
 0
VERTEX
 8
PARTS
 10
  2.9400
 20
  4.6000
 30
0.0
 0
VERTEX
 8
PARTS
 10
  2.9400
 20
  4.6000
 30
0.0
 0
SEQEND
 8
PARTS
 0
POLYLINE
 8
PARTS
 66
1
 10
0.0
 20
0.0
 30
0.0
 0
VERTEX
 8
PARTS
 10
  2.9400
 20
  4.6000
 30
0.0
 0
VERTEX
 8
PARTS
 10
  2.9400
 20
  4.6000
 30
0.0
 0
SEQEND
 8
PARTS
 0
POLYLINE
 8
PARTS
 66
1
 10
0.0
 20
0.0
 30
0.0
 0
VERTEX
 8
PARTS
 10
  3.0800
 20
  4.5000
 30
0.0
 0
VERTEX
 8
PARTS
 10
  2.9200
 20
  4.5000
 30
0.0
 0
SEQEND
 8
PARTS
 0
POLYLINE
 8
PARTS
 66
1
 10
0.0
 20
0.0
 30
0.0
 0
VERTEX
 8
PARTS
 10
  2.9800
 20
  4.6200
 30
0.0
 0
VERTEX
 8
PARTS
 10
  2.9200
 20
  4.6600
 30
0.0
 0
SEQEND
 8
PARTS
 0
POLYLINE
 8
PARTS
 66
1
 10
0.0
 20
0.0
 30
0.0
 0
VERTEX
 8
PARTS
 10
  2.9300
 20
  4.6300
 30
0.0
 0
VERTEX
 8
PARTS
 10
  2.9200
 20
  4.6600
 30
0.0
 0
SEQEND
 8
PARTS
 0
POLYLINE
 8
PARTS
 66
1
 10
0.0
 20
0.0
 30
0.0
 0
VERTEX
 8
PARTS
 10
  2.9500
 20
  4.6600
 30
0.0
 0
VERTEX
 8
PARTS
 10
  2.9200
 20
  4.6600
 30
0.0
 0
SEQEND
 8
PARTS
 0
POLYLINE
 8
PARTS
 66
1
 10
0.0
 20
0.0
 30
0.0
 0
VERTEX
 8
PARTS
 10
  2.9800
 20
  4.6600
 30
0.0
 0
VERTEX
 8
PARTS
 10
  2.9200
 20
  4.7000
 30
0.0
 0
SEQEND
 8
PARTS
 0
POLYLINE
 8
PARTS
 66
1
 10
0.0
 20
0.0
 30
0.0
 0
VERTEX
 8
PARTS
 10
  2.9300
 20
  4.6700
 30
0.0
 0
VERTEX
 8
PARTS
 10
  2.9200
 20
  4.7000
 30
0.0
 0
SEQEND
 8
PARTS
 0
POLYLINE
 8
PARTS
 66
1
 10
0.0
 20
0.0
 30
0.0
 0
VERTEX
 8
PARTS
 10
  2.9500
 20
  4.7000
 30
0.0
 0
VERTEX
 8
PARTS
 10
  2.9200
 20
  4.7000
 30
0.0
 0
SEQEND
 8
PARTS
 0
TEXT
 8
PARTTEXT
 10
  7.3500
 20
  4.4186
 30
0.0
 40
  0.0514
 1
D1
 0
TEXT
 8
PARTTEXT
 10
  7.4000
 20
  4.2586
 30
0.0
 40
  0.0514
 1
3.3
 0
LINE
 8
PARTS
 10
  7.2000
 20
  4.2000
 30
0.0
 11
  7.2000
 21
  4.3000
 31
0.0
 0
LINE
 8
PARTS
 10
  7.2000
 20
  4.6000
 30
0.0
 11
  7.2000
 21
  4.5000
 31
0.0
 0
POLYLINE
 8
PARTS
 66
1
 10
0.0
 20
0.0
 30
0.0
 0
VERTEX
 8
PARTS
 10
  6.9200
 20
  4.5000
 30
0.0
 0
VERTEX
 8
PARTS
 10
  7.0000
 20
  4.6000
 30
0.0
 0
SEQEND
 8
PARTS
 0
POLYLINE
 8
PARTS
 66
1
 10
0.0
 20
0.0
 30
0.0
 0
VERTEX
 8
PARTS
 10
  7.0000
 20
  4.6000
 30
0.0
 0
VERTEX
 8
PARTS
 10
  7.0800
 20
  4.5000
 30
0.0
 0
SEQEND
 8
PARTS
 0
POLYLINE
 8
PARTS
 66
1
 10
0.0
 20
0.0
 30
0.0
 0
VERTEX
 8
PARTS
 10
  7.0800
 20
  4.6000
 30
0.0
 0
VERTEX
 8
PARTS
 10
  6.9200
 20
  4.6000
 30
0.0
 0
SEQEND
 8
PARTS
 0
POLYLINE
 8
PARTS
 66
1
 10
0.0
 20
0.0
 30
0.0
 0
VERTEX
 8
PARTS
 10
  7.0000
 20
  4.7000
 30
0.0
 0
VERTEX
 8
PARTS
 10
  7.0000
 20
  4.6000
 30
0.0
 0
SEQEND
 8
PARTS
 0
POLYLINE
 8
PARTS
 66
1
 10
0.0
 20
0.0
 30
0.0
 0
VERTEX
 8
PARTS
 10
  6.9400
 20
  4.6000
 30
0.0
 0
VERTEX
 8
PARTS
 10
  6.9400
 20
  4.6000
 30
0.0
 0
SEQEND
 8
PARTS
 0
POLYLINE
 8
PARTS
 66
1
 10
0.0
 20
0.0
 30
0.0
 0
VERTEX
 8
PARTS
 10
  6.9400
 20
  4.6000
 30
0.0
 0
VERTEX
 8
PARTS
 10
  6.9400
 20
  4.6000
 30
0.0
 0
SEQEND
 8
PARTS
 0
POLYLINE
 8
PARTS
 66
1
 10
0.0
 20
0.0
 30
0.0
 0
VERTEX
 8
PARTS
 10
  7.0800
 20
  4.5000
 30
0.0
 0
VERTEX
 8
PARTS
 10
  6.9200
 20
  4.5000
 30
0.0
 0
SEQEND
 8
PARTS
 0
POLYLINE
 8
PARTS
 66
1
 10
0.0
 20
0.0
 30
0.0
 0
VERTEX
 8
PARTS
 10
  6.9800
 20
  4.6200
 30
0.0
 0
VERTEX
 8
PARTS
 10
  6.9200
 20
  4.6600
 30
0.0
 0
SEQEND
 8
PARTS
 0
POLYLINE
 8
PARTS
 66
1
 10
0.0
 20
0.0
 30
0.0
 0
VERTEX
 8
PARTS
 10
  6.9300
 20
  4.6300
 30
0.0
 0
VERTEX
 8
PARTS
 10
  6.9200
 20
  4.6600
 30
0.0
 0
SEQEND
 8
PARTS
 0
POLYLINE
 8
PARTS
 66
1
 10
0.0
 20
0.0
 30
0.0
 0
VERTEX
 8
PARTS
 10
  6.9500
 20
  4.6600
 30
0.0
 0
VERTEX
 8
PARTS
 10
  6.9200
 20
  4.6600
 30
0.0
 0
SEQEND
 8
PARTS
 0
POLYLINE
 8
PARTS
 66
1
 10
0.0
 20
0.0
 30
0.0
 0
VERTEX
 8
PARTS
 10
  6.9800
 20
  4.6600
 30
0.0
 0
VERTEX
 8
PARTS
 10
  6.9200
 20
  4.7000
 30
0.0
 0
SEQEND
 8
PARTS
 0
POLYLINE
 8
PARTS
 66
1
 10
0.0
 20
0.0
 30
0.0
 0
VERTEX
 8
PARTS
 10
  6.9300
 20
  4.6700
 30
0.0
 0
VERTEX
 8
PARTS
 10
  6.9200
 20
  4.7000
 30
0.0
 0
SEQEND
 8
PARTS
 0
POLYLINE
 8
PARTS
 66
1
 10
0.0
 20
0.0
 30
0.0
 0
VERTEX
 8
PARTS
 10
  6.9500
 20
  4.7000
 30
0.0
 0
VERTEX
 8
PARTS
 10
  6.9200
 20
  4.7000
 30
0.0
 0
SEQEND
 8
PARTS
 0
TEXT
 8
PARTTEXT
 10
  1.1000
 20
  5.7486
 30
0.0
 40
  0.0514
 1
J1
 0
TEXT
 8
PARTTEXT
 10
  1.1000
 20
  5.0186
 30
0.0
 40
  0.0514
 1
CON_gps
 0
LINE
 8
PARTS
 10
  1.6000
 20
  5.3000
 30
0.0
 11
  1.3000
 21
  5.3000
 31
0.0
 0
TEXT
 8
PARTS
 10
  1.3600
 20
  5.3300
 30
0.0
 40
  0.0500
 1
1
 0
LINE
 8
PARTS
 10
  1.6000
 20
  5.4000
 30
0.0
 11
  1.3000
 21
  5.4000
 31
0.0
 0
TEXT
 8
PARTS
 10
  1.3600
 20
  5.4300
 30
0.0
 40
  0.0500
 1
2
 0
LINE
 8
PARTS
 10
  1.6000
 20
  5.5000
 30
0.0
 11
  1.3000
 21
  5.5000
 31
0.0
 0
TEXT
 8
PARTS
 10
  1.3600
 20
  5.5300
 30
0.0
 40
  0.0500
 1
3
 0
LINE
 8
PARTS
 10
  1.6000
 20
  5.6000
 30
0.0
 11
  1.3000
 21
  5.6000
 31
0.0
 0
TEXT
 8
PARTS
 10
  1.3600
 20
  5.6300
 30
0.0
 40
  0.0500
 1
4
 0
POLYLINE
 8
PARTS
 66
1
 70
1
 10
0.0
 20
0.0
 30
0.0
 0
VERTEX
 8
PARTS
 10
  1.1000
 20
  5.7000
 30
0.0
 0
VERTEX
 8
PARTS
 10
  0.9000
 20
  5.7000
 30
0.0
 0
VERTEX
 8
PARTS
 10
  0.9000
 20
  6.2000
 30
0.0
 0
VERTEX
 8
PARTS
 10
  1.1000
 20
  6.2000
 30
0.0
 0
SEQEND
 8
PARTS
 0
TEXT
 8
PARTTEXT
 10
  6.3500
 20
  3.8186
 30
0.0
 40
  0.0514
 1
R3
 0
TEXT
 8
PARTTEXT
 10
  6.4000
 20
  3.6586
 30
0.0
 40
  0.0514
 1
220
 0
LINE
 8
PARTS
 10
  6.2000
 20
  3.5000
 30
0.0
 11
  6.2000
 21
  3.6000
 31
0.0
 0
TEXT
 8
PARTS
 10
  6.1700
 20
  3.4800
 30
0.0
 40
  0.0500
 50
 90.0000
 1

 0
LINE
 8
PARTS
 10
  6.2000
 20
  4.0000
 30
0.0
 11
  6.2000
 21
  3.9000
 31
0.0
 0
TEXT
 8
PARTS
 10
  6.1700
 20
  3.9600
 30
0.0
 40
  0.0500
 50
 90.0000
 1

 0
POLYLINE
 8
PARTS
 66
1
 10
0.0
 20
0.0
 30
0.0
 0
VERTEX
 8
PARTS
 10
  6.0000
 20
  3.9000
 30
0.0
 0
VERTEX
 8
PARTS
 10
  5.9700
 20
  3.9300
 30
0.0
 0
SEQEND
 8
PARTS
 0
POLYLINE
 8
PARTS
 66
1
 10
0.0
 20
0.0
 30
0.0
 0
VERTEX
 8
PARTS
 10
  5.9700
 20
  3.9300
 30
0.0
 0
VERTEX
 8
PARTS
 10
  6.0300
 20
  3.9900
 30
0.0
 0
SEQEND
 8
PARTS
 0
POLYLINE
 8
PARTS
 66
1
 10
0.0
 20
0.0
 30
0.0
 0
VERTEX
 8
PARTS
 10
  6.0300
 20
  3.9900
 30
0.0
 0
VERTEX
 8
PARTS
 10
  5.9700
 20
  4.0500
 30
0.0
 0
SEQEND
 8
PARTS
 0
POLYLINE
 8
PARTS
 66
1
 10
0.0
 20
0.0
 30
0.0
 0
VERTEX
 8
PARTS
 10
  5.9700
 20
  4.0500
 30
0.0
 0
VERTEX
 8
PARTS
 10
  6.0300
 20
  4.1100
 30
0.0
 0
SEQEND
 8
PARTS
 0
POLYLINE
 8
PARTS
 66
1
 10
0.0
 20
0.0
 30
0.0
 0
VERTEX
 8
PARTS
 10
  6.0300
 20
  4.1100
 30
0.0
 0
VERTEX
 8
PARTS
 10
  5.9700
 20
  4.1700
 30
0.0
 0
SEQEND
 8
PARTS
 0
POLYLINE
 8
PARTS
 66
1
 10
0.0
 20
0.0
 30
0.0
 0
VERTEX
 8
PARTS
 10
  5.9700
 20
  4.1700
 30
0.0
 0
VERTEX
 8
PARTS
 10
  6.0000
 20
  4.2000
 30
0.0
 0
SEQEND
 8
PARTS
 0
TEXT
 8
PARTTEXT
 10
  3.0000
 20
  6.8786
 30
0.0
 40
  0.0514
 1
J5
 0
TEXT
 8
PARTTEXT
 10
  3.0000
 20
  6.7786
 30
0.0
 40
  0.0514
 1
CON_high_sx
 0
LINE
 8
PARTS
 10
  3.1000
 20
  6.2000
 30
0.0
 11
  3.1000
 21
  6.5000
 31
0.0
 0
TEXT
 8
PARTS
 10
  3.0700
 20
  6.3800
 30
0.0
 40
  0.0500
 50
 90.0000
 1
1
 0
LINE
 8
PARTS
 10
  3.2000
 20
  6.2000
 30
0.0
 11
  3.2000
 21
  6.5000
 31
0.0
 0
TEXT
 8
PARTS
 10
  3.1700
 20
  6.3800
 30
0.0
 40
  0.0500
 50
 90.0000
 1
2
 0
LINE
 8
PARTS
 10
  3.3000
 20
  6.2000
 30
0.0
 11
  3.3000
 21
  6.5000
 31
0.0
 0
TEXT
 8
PARTS
 10
  3.2700
 20
  6.3800
 30
0.0
 40
  0.0500
 50
 90.0000
 1
3
 0
LINE
 8
PARTS
 10
  3.4000
 20
  6.2000
 30
0.0
 11
  3.4000
 21
  6.5000
 31
0.0
 0
TEXT
 8
PARTS
 10
  3.3700
 20
  6.3800
 30
0.0
 40
  0.0500
 50
 90.0000
 1
4
 0
LINE
 8
PARTS
 10
  3.5000
 20
  6.2000
 30
0.0
 11
  3.5000
 21
  6.5000
 31
0.0
 0
TEXT
 8
PARTS
 10
  3.4700
 20
  6.3800
 30
0.0
 40
  0.0500
 50
 90.0000
 1
5
 0
LINE
 8
PARTS
 10
  3.6000
 20
  6.2000
 30
0.0
 11
  3.6000
 21
  6.5000
 31
0.0
 0
TEXT
 8
PARTS
 10
  3.5700
 20
  6.3800
 30
0.0
 40
  0.0500
 50
 90.0000
 1
6
 0
POLYLINE
 8
PARTS
 66
1
 70
1
 10
0.0
 20
0.0
 30
0.0
 0
VERTEX
 8
PARTS
 10
  3.0000
 20
  6.7000
 30
0.0
 0
VERTEX
 8
PARTS
 10
  3.0000
 20
  6.9000
 30
0.0
 0
VERTEX
 8
PARTS
 10
  3.7000
 20
  6.9000
 30
0.0
 0
VERTEX
 8
PARTS
 10
  3.7000
 20
  6.7000
 30
0.0
 0
SEQEND
 8
PARTS
 0
TEXT
 8
PARTTEXT
 10
  3.0000
 20
  1.8686
 30
0.0
 40
  0.0514
 1
J4
 0
TEXT
 8
PARTTEXT
 10
  3.0000
 20
  1.6586
 30
0.0
 40
  0.0514
 1
CON_low_sx
 0
LINE
 8
PARTS
 10
  3.8000
 20
  2.5000
 30
0.0
 11
  3.8000
 21
  2.2000
 31
0.0
 0
TEXT
 8
PARTS
 10
  3.7700
 20
  2.2600
 30
0.0
 40
  0.0500
 50
 90.0000
 1
1
 0
LINE
 8
PARTS
 10
  3.7000
 20
  2.5000
 30
0.0
 11
  3.7000
 21
  2.2000
 31
0.0
 0
TEXT
 8
PARTS
 10
  3.6700
 20
  2.2600
 30
0.0
 40
  0.0500
 50
 90.0000
 1
2
 0
LINE
 8
PARTS
 10
  3.6000
 20
  2.5000
 30
0.0
 11
  3.6000
 21
  2.2000
 31
0.0
 0
TEXT
 8
PARTS
 10
  3.5700
 20
  2.2600
 30
0.0
 40
  0.0500
 50
 90.0000
 1
3
 0
LINE
 8
PARTS
 10
  3.5000
 20
  2.5000
 30
0.0
 11
  3.5000
 21
  2.2000
 31
0.0
 0
TEXT
 8
PARTS
 10
  3.4700
 20
  2.2600
 30
0.0
 40
  0.0500
 50
 90.0000
 1
4
 0
LINE
 8
PARTS
 10
  3.4000
 20
  2.5000
 30
0.0
 11
  3.4000
 21
  2.2000
 31
0.0
 0
TEXT
 8
PARTS
 10
  3.3700
 20
  2.2600
 30
0.0
 40
  0.0500
 50
 90.0000
 1
5
 0
LINE
 8
PARTS
 10
  3.3000
 20
  2.5000
 30
0.0
 11
  3.3000
 21
  2.2000
 31
0.0
 0
TEXT
 8
PARTS
 10
  3.2700
 20
  2.2600
 30
0.0
 40
  0.0500
 50
 90.0000
 1
6
 0
LINE
 8
PARTS
 10
  3.2000
 20
  2.5000
 30
0.0
 11
  3.2000
 21
  2.2000
 31
0.0
 0
TEXT
 8
PARTS
 10
  3.1700
 20
  2.2600
 30
0.0
 40
  0.0500
 50
 90.0000
 1
7
 0
LINE
 8
PARTS
 10
  3.1000
 20
  2.5000
 30
0.0
 11
  3.1000
 21
  2.2000
 31
0.0
 0
TEXT
 8
PARTS
 10
  3.0700
 20
  2.2600
 30
0.0
 40
  0.0500
 50
 90.0000
 1
8
 0
POLYLINE
 8
PARTS
 66
1
 70
1
 10
0.0
 20
0.0
 30
0.0
 0
VERTEX
 8
PARTS
 10
  3.0000
 20
  2.2000
 30
0.0
 0
VERTEX
 8
PARTS
 10
  3.0000
 20
  2.0000
 30
0.0
 0
VERTEX
 8
PARTS
 10
  2.1000
 20
  2.0000
 30
0.0
 0
VERTEX
 8
PARTS
 10
  2.1000
 20
  2.2000
 30
0.0
 0
SEQEND
 8
PARTS
 0
TEXT
 8
PARTTEXT
 10
  5.3500
 20
  4.4186
 30
0.0
 40
  0.0514
 1
D5
 0
TEXT
 8
PARTTEXT
 10
  5.4000
 20
  4.2586
 30
0.0
 40
  0.0514
 1
3.3
 0
LINE
 8
PARTS
 10
  5.2000
 20
  4.2000
 30
0.0
 11
  5.2000
 21
  4.3000
 31
0.0
 0
LINE
 8
PARTS
 10
  5.2000
 20
  4.6000
 30
0.0
 11
  5.2000
 21
  4.5000
 31
0.0
 0
POLYLINE
 8
PARTS
 66
1
 10
0.0
 20
0.0
 30
0.0
 0
VERTEX
 8
PARTS
 10
  4.9200
 20
  4.5000
 30
0.0
 0
VERTEX
 8
PARTS
 10
  5.0000
 20
  4.6000
 30
0.0
 0
SEQEND
 8
PARTS
 0
POLYLINE
 8
PARTS
 66
1
 10
0.0
 20
0.0
 30
0.0
 0
VERTEX
 8
PARTS
 10
  5.0000
 20
  4.6000
 30
0.0
 0
VERTEX
 8
PARTS
 10
  5.0800
 20
  4.5000
 30
0.0
 0
SEQEND
 8
PARTS
 0
POLYLINE
 8
PARTS
 66
1
 10
0.0
 20
0.0
 30
0.0
 0
VERTEX
 8
PARTS
 10
  5.0800
 20
  4.6000
 30
0.0
 0
VERTEX
 8
PARTS
 10
  4.9200
 20
  4.6000
 30
0.0
 0
SEQEND
 8
PARTS
 0
POLYLINE
 8
PARTS
 66
1
 10
0.0
 20
0.0
 30
0.0
 0
VERTEX
 8
PARTS
 10
  5.0000
 20
  4.7000
 30
0.0
 0
VERTEX
 8
PARTS
 10
  5.0000
 20
  4.6000
 30
0.0
 0
SEQEND
 8
PARTS
 0
POLYLINE
 8
PARTS
 66
1
 10
0.0
 20
0.0
 30
0.0
 0
VERTEX
 8
PARTS
 10
  4.9400
 20
  4.6000
 30
0.0
 0
VERTEX
 8
PARTS
 10
  4.9400
 20
  4.6000
 30
0.0
 0
SEQEND
 8
PARTS
 0
POLYLINE
 8
PARTS
 66
1
 10
0.0
 20
0.0
 30
0.0
 0
VERTEX
 8
PARTS
 10
  4.9400
 20
  4.6000
 30
0.0
 0
VERTEX
 8
PARTS
 10
  4.9400
 20
  4.6000
 30
0.0
 0
SEQEND
 8
PARTS
 0
POLYLINE
 8
PARTS
 66
1
 10
0.0
 20
0.0
 30
0.0
 0
VERTEX
 8
PARTS
 10
  5.0800
 20
  4.5000
 30
0.0
 0
VERTEX
 8
PARTS
 10
  4.9200
 20
  4.5000
 30
0.0
 0
SEQEND
 8
PARTS
 0
POLYLINE
 8
PARTS
 66
1
 10
0.0
 20
0.0
 30
0.0
 0
VERTEX
 8
PARTS
 10
  4.9800
 20
  4.6200
 30
0.0
 0
VERTEX
 8
PARTS
 10
  4.9200
 20
  4.6600
 30
0.0
 0
SEQEND
 8
PARTS
 0
POLYLINE
 8
PARTS
 66
1
 10
0.0
 20
0.0
 30
0.0
 0
VERTEX
 8
PARTS
 10
  4.9300
 20
  4.6300
 30
0.0
 0
VERTEX
 8
PARTS
 10
  4.9200
 20
  4.6600
 30
0.0
 0
SEQEND
 8
PARTS
 0
POLYLINE
 8
PARTS
 66
1
 10
0.0
 20
0.0
 30
0.0
 0
VERTEX
 8
PARTS
 10
  4.9500
 20
  4.6600
 30
0.0
 0
VERTEX
 8
PARTS
 10
  4.9200
 20
  4.6600
 30
0.0
 0
SEQEND
 8
PARTS
 0
POLYLINE
 8
PARTS
 66
1
 10
0.0
 20
0.0
 30
0.0
 0
VERTEX
 8
PARTS
 10
  4.9800
 20
  4.6600
 30
0.0
 0
VERTEX
 8
PARTS
 10
  4.9200
 20
  4.7000
 30
0.0
 0
SEQEND
 8
PARTS
 0
POLYLINE
 8
PARTS
 66
1
 10
0.0
 20
0.0
 30
0.0
 0
VERTEX
 8
PARTS
 10
  4.9300
 20
  4.6700
 30
0.0
 0
VERTEX
 8
PARTS
 10
  4.9200
 20
  4.7000
 30
0.0
 0
SEQEND
 8
PARTS
 0
POLYLINE
 8
PARTS
 66
1
 10
0.0
 20
0.0
 30
0.0
 0
VERTEX
 8
PARTS
 10
  4.9500
 20
  4.7000
 30
0.0
 0
VERTEX
 8
PARTS
 10
  4.9200
 20
  4.7000
 30
0.0
 0
SEQEND
 8
PARTS
 0
TEXT
 8
PARTTEXT
 10
  3.8500
 20
  3.8186
 30
0.0
 40
  0.0514
 1
R8
 0
TEXT
 8
PARTTEXT
 10
  3.9000
 20
  3.6586
 30
0.0
 40
  0.0514
 1
220
 0
LINE
 8
PARTS
 10
  3.7000
 20
  3.5000
 30
0.0
 11
  3.7000
 21
  3.6000
 31
0.0
 0
TEXT
 8
PARTS
 10
  3.6700
 20
  3.4800
 30
0.0
 40
  0.0500
 50
 90.0000
 1

 0
LINE
 8
PARTS
 10
  3.7000
 20
  4.0000
 30
0.0
 11
  3.7000
 21
  3.9000
 31
0.0
 0
TEXT
 8
PARTS
 10
  3.6700
 20
  3.9600
 30
0.0
 40
  0.0500
 50
 90.0000
 1

 0
POLYLINE
 8
PARTS
 66
1
 10
0.0
 20
0.0
 30
0.0
 0
VERTEX
 8
PARTS
 10
  3.5000
 20
  3.9000
 30
0.0
 0
VERTEX
 8
PARTS
 10
  3.4700
 20
  3.9300
 30
0.0
 0
SEQEND
 8
PARTS
 0
POLYLINE
 8
PARTS
 66
1
 10
0.0
 20
0.0
 30
0.0
 0
VERTEX
 8
PARTS
 10
  3.4700
 20
  3.9300
 30
0.0
 0
VERTEX
 8
PARTS
 10
  3.5300
 20
  3.9900
 30
0.0
 0
SEQEND
 8
PARTS
 0
POLYLINE
 8
PARTS
 66
1
 10
0.0
 20
0.0
 30
0.0
 0
VERTEX
 8
PARTS
 10
  3.5300
 20
  3.9900
 30
0.0
 0
VERTEX
 8
PARTS
 10
  3.4700
 20
  4.0500
 30
0.0
 0
SEQEND
 8
PARTS
 0
POLYLINE
 8
PARTS
 66
1
 10
0.0
 20
0.0
 30
0.0
 0
VERTEX
 8
PARTS
 10
  3.4700
 20
  4.0500
 30
0.0
 0
VERTEX
 8
PARTS
 10
  3.5300
 20
  4.1100
 30
0.0
 0
SEQEND
 8
PARTS
 0
POLYLINE
 8
PARTS
 66
1
 10
0.0
 20
0.0
 30
0.0
 0
VERTEX
 8
PARTS
 10
  3.5300
 20
  4.1100
 30
0.0
 0
VERTEX
 8
PARTS
 10
  3.4700
 20
  4.1700
 30
0.0
 0
SEQEND
 8
PARTS
 0
POLYLINE
 8
PARTS
 66
1
 10
0.0
 20
0.0
 30
0.0
 0
VERTEX
 8
PARTS
 10
  3.4700
 20
  4.1700
 30
0.0
 0
VERTEX
 8
PARTS
 10
  3.5000
 20
  4.2000
 30
0.0
 0
SEQEND
 8
PARTS
 0
TEXT
 8
PARTTEXT
 10
  2.8500
 20
  4.4186
 30
0.0
 40
  0.0514
 1
D10
 0
TEXT
 8
PARTTEXT
 10
  2.9000
 20
  4.2586
 30
0.0
 40
  0.0514
 1
3.3
 0
LINE
 8
PARTS
 10
  2.7000
 20
  4.2000
 30
0.0
 11
  2.7000
 21
  4.3000
 31
0.0
 0
LINE
 8
PARTS
 10
  2.7000
 20
  4.6000
 30
0.0
 11
  2.7000
 21
  4.5000
 31
0.0
 0
POLYLINE
 8
PARTS
 66
1
 10
0.0
 20
0.0
 30
0.0
 0
VERTEX
 8
PARTS
 10
  2.4200
 20
  4.5000
 30
0.0
 0
VERTEX
 8
PARTS
 10
  2.5000
 20
  4.6000
 30
0.0
 0
SEQEND
 8
PARTS
 0
POLYLINE
 8
PARTS
 66
1
 10
0.0
 20
0.0
 30
0.0
 0
VERTEX
 8
PARTS
 10
  2.5000
 20
  4.6000
 30
0.0
 0
VERTEX
 8
PARTS
 10
  2.5800
 20
  4.5000
 30
0.0
 0
SEQEND
 8
PARTS
 0
POLYLINE
 8
PARTS
 66
1
 10
0.0
 20
0.0
 30
0.0
 0
VERTEX
 8
PARTS
 10
  2.5800
 20
  4.6000
 30
0.0
 0
VERTEX
 8
PARTS
 10
  2.4200
 20
  4.6000
 30
0.0
 0
SEQEND
 8
PARTS
 0
POLYLINE
 8
PARTS
 66
1
 10
0.0
 20
0.0
 30
0.0
 0
VERTEX
 8
PARTS
 10
  2.5000
 20
  4.7000
 30
0.0
 0
VERTEX
 8
PARTS
 10
  2.5000
 20
  4.6000
 30
0.0
 0
SEQEND
 8
PARTS
 0
POLYLINE
 8
PARTS
 66
1
 10
0.0
 20
0.0
 30
0.0
 0
VERTEX
 8
PARTS
 10
  2.4400
 20
  4.6000
 30
0.0
 0
VERTEX
 8
PARTS
 10
  2.4400
 20
  4.6000
 30
0.0
 0
SEQEND
 8
PARTS
 0
POLYLINE
 8
PARTS
 66
1
 10
0.0
 20
0.0
 30
0.0
 0
VERTEX
 8
PARTS
 10
  2.4400
 20
  4.6000
 30
0.0
 0
VERTEX
 8
PARTS
 10
  2.4400
 20
  4.6000
 30
0.0
 0
SEQEND
 8
PARTS
 0
POLYLINE
 8
PARTS
 66
1
 10
0.0
 20
0.0
 30
0.0
 0
VERTEX
 8
PARTS
 10
  2.5800
 20
  4.5000
 30
0.0
 0
VERTEX
 8
PARTS
 10
  2.4200
 20
  4.5000
 30
0.0
 0
SEQEND
 8
PARTS
 0
POLYLINE
 8
PARTS
 66
1
 10
0.0
 20
0.0
 30
0.0
 0
VERTEX
 8
PARTS
 10
  2.4800
 20
  4.6200
 30
0.0
 0
VERTEX
 8
PARTS
 10
  2.4200
 20
  4.6600
 30
0.0
 0
SEQEND
 8
PARTS
 0
POLYLINE
 8
PARTS
 66
1
 10
0.0
 20
0.0
 30
0.0
 0
VERTEX
 8
PARTS
 10
  2.4300
 20
  4.6300
 30
0.0
 0
VERTEX
 8
PARTS
 10
  2.4200
 20
  4.6600
 30
0.0
 0
SEQEND
 8
PARTS
 0
POLYLINE
 8
PARTS
 66
1
 10
0.0
 20
0.0
 30
0.0
 0
VERTEX
 8
PARTS
 10
  2.4500
 20
  4.6600
 30
0.0
 0
VERTEX
 8
PARTS
 10
  2.4200
 20
  4.6600
 30
0.0
 0
SEQEND
 8
PARTS
 0
POLYLINE
 8
PARTS
 66
1
 10
0.0
 20
0.0
 30
0.0
 0
VERTEX
 8
PARTS
 10
  2.4800
 20
  4.6600
 30
0.0
 0
VERTEX
 8
PARTS
 10
  2.4200
 20
  4.7000
 30
0.0
 0
SEQEND
 8
PARTS
 0
POLYLINE
 8
PARTS
 66
1
 10
0.0
 20
0.0
 30
0.0
 0
VERTEX
 8
PARTS
 10
  2.4300
 20
  4.6700
 30
0.0
 0
VERTEX
 8
PARTS
 10
  2.4200
 20
  4.7000
 30
0.0
 0
SEQEND
 8
PARTS
 0
POLYLINE
 8
PARTS
 66
1
 10
0.0
 20
0.0
 30
0.0
 0
VERTEX
 8
PARTS
 10
  2.4500
 20
  4.7000
 30
0.0
 0
VERTEX
 8
PARTS
 10
  2.4200
 20
  4.7000
 30
0.0
 0
SEQEND
 8
PARTS
 0
POLYLINE
 8
WIRE
 66
1
 10
0.0
 20
0.0
 30
0.0
 0
VERTEX
 8
WIRE
 10
  0.5000
 20
  6.0000
 30
0.0
 0
VERTEX
 8
WIRE
 10
  0.5000
 20
  3.4000
 30
0.0
 0
SEQEND
 8
WIRE
 0
POLYLINE
 8
WIRE
 66
1
 10
0.0
 20
0.0
 30
0.0
 0
VERTEX
 8
WIRE
 10
  2.2000
 20
  4.8000
 30
0.0
 0
VERTEX
 8
WIRE
 10
  2.2000
 20
  4.6000
 30
0.0
 0
SEQEND
 8
WIRE
 0
POLYLINE
 8
WIRE
 66
1
 10
0.0
 20
0.0
 30
0.0
 0
VERTEX
 8
WIRE
 10
  1.6000
 20
  5.3000
 30
0.0
 0
VERTEX
 8
WIRE
 10
  5.4000
 20
  5.3000
 30
0.0
 0
SEQEND
 8
WIRE
 0
POLYLINE
 8
WIRE
 66
1
 10
0.0
 20
0.0
 30
0.0
 0
VERTEX
 8
WIRE
 10
  4.8000
 20
  3.2000
 30
0.0
 0
VERTEX
 8
WIRE
 10
  5.7000
 20
  3.2000
 30
0.0
 0
SEQEND
 8
WIRE
 0
POLYLINE
 8
WIRE
 66
1
 10
0.0
 20
0.0
 30
0.0
 0
VERTEX
 8
WIRE
 10
  7.2000
 20
  3.5000
 30
0.0
 0
VERTEX
 8
WIRE
 10
  7.2000
 20
  2.9000
 30
0.0
 0
SEQEND
 8
WIRE
 0
POLYLINE
 8
WIRE
 66
1
 10
0.0
 20
0.0
 30
0.0
 0
VERTEX
 8
WIRE
 10
  6.2000
 20
  4.8000
 30
0.0
 0
VERTEX
 8
WIRE
 10
  6.2000
 20
  4.6000
 30
0.0
 0
SEQEND
 8
WIRE
 0
POLYLINE
 8
WIRE
 66
1
 10
0.0
 20
0.0
 30
0.0
 0
VERTEX
 8
WIRE
 10
  1.2000
 20
  4.8000
 30
0.0
 0
VERTEX
 8
WIRE
 10
  1.7000
 20
  4.8000
 30
0.0
 0
SEQEND
 8
WIRE
 0
POLYLINE
 8
WIRE
 66
1
 10
0.0
 20
0.0
 30
0.0
 0
VERTEX
 8
WIRE
 10
  4.8000
 20
  3.2000
 30
0.0
 0
VERTEX
 8
WIRE
 10
  4.8000
 20
  2.6000
 30
0.0
 0
SEQEND
 8
WIRE
 0
POLYLINE
 8
WIRE
 66
1
 10
0.0
 20
0.0
 30
0.0
 0
VERTEX
 8
WIRE
 10
  4.7000
 20
  4.2000
 30
0.0
 0
VERTEX
 8
WIRE
 10
  4.7000
 20
  4.0000
 30
0.0
 0
SEQEND
 8
WIRE
 0
POLYLINE
 8
WIRE
 66
1
 10
0.0
 20
0.0
 30
0.0
 0
VERTEX
 8
WIRE
 10
  5.6000
 20
  2.7000
 30
0.0
 0
VERTEX
 8
WIRE
 10
  7.8000
 20
  2.7000
 30
0.0
 0
SEQEND
 8
WIRE
 0
POLYLINE
 8
WIRE
 66
1
 10
0.0
 20
0.0
 30
0.0
 0
VERTEX
 8
WIRE
 10
  4.7000
 20
  3.3000
 30
0.0
 0
VERTEX
 8
WIRE
 10
  5.2000
 20
  3.3000
 30
0.0
 0
SEQEND
 8
WIRE
 0
POLYLINE
 8
WIRE
 66
1
 10
0.0
 20
0.0
 30
0.0
 0
VERTEX
 8
WIRE
 10
  0.5000
 20
  6.0000
 30
0.0
 0
VERTEX
 8
WIRE
 10
  4.8000
 20
  6.0000
 30
0.0
 0
SEQEND
 8
WIRE
 0
POLYLINE
 8
WIRE
 66
1
 10
0.0
 20
0.0
 30
0.0
 0
VERTEX
 8
WIRE
 10
  2.7000
 20
  4.8000
 30
0.0
 0
VERTEX
 8
WIRE
 10
  2.7000
 20
  4.6000
 30
0.0
 0
SEQEND
 8
WIRE
 0
POLYLINE
 8
WIRE
 66
1
 10
0.0
 20
0.0
 30
0.0
 0
VERTEX
 8
WIRE
 10
  5.4000
 20
  6.2000
 30
0.0
 0
VERTEX
 8
WIRE
 10
  5.4000
 20
  5.3000
 30
0.0
 0
SEQEND
 8
WIRE
 0
POLYLINE
 8
WIRE
 66
1
 10
0.0
 20
0.0
 30
0.0
 0
VERTEX
 8
WIRE
 10
  4.3000
 20
  3.4000
 30
0.0
 0
VERTEX
 8
WIRE
 10
  4.3000
 20
  2.9000
 30
0.0
 0
SEQEND
 8
WIRE
 0
POLYLINE
 8
WIRE
 66
1
 10
0.0
 20
0.0
 30
0.0
 0
VERTEX
 8
WIRE
 10
  5.1000
 20
  2.9000
 30
0.0
 0
VERTEX
 8
WIRE
 10
  7.2000
 20
  2.9000
 30
0.0
 0
SEQEND
 8
WIRE
 0
POLYLINE
 8
WIRE
 66
1
 10
0.0
 20
0.0
 30
0.0
 0
VERTEX
 8
WIRE
 10
  5.7000
 20
  4.8000
 30
0.0
 0
VERTEX
 8
WIRE
 10
  6.2000
 20
  4.8000
 30
0.0
 0
SEQEND
 8
WIRE
 0
POLYLINE
 8
WIRE
 66
1
 70
1
 10
0.0
 20
0.0
 30
0.0
 40
  0.0200
 41
  0.0200
 0
VERTEX
 8
WIRE
 10
  6.1900
 20
  4.8000
 30
0.0
 42
1.0
 0
VERTEX
 8
WIRE
 10
  6.2100
 20
  4.8000
 30
0.0
 42
1.0
 0
SEQEND
 8
WIRE
 0
POLYLINE
 8
WIRE
 66
1
 10
0.0
 20
0.0
 30
0.0
 0
VERTEX
 8
WIRE
 10
  1.2000
 20
  4.8000
 30
0.0
 0
VERTEX
 8
WIRE
 10
  1.2000
 20
  4.1000
 30
0.0
 0
SEQEND
 8
WIRE
 0
POLYLINE
 8
WIRE
 66
1
 10
0.0
 20
0.0
 30
0.0
 0
VERTEX
 8
WIRE
 10
  4.9000
 20
  3.1000
 30
0.0
 0
VERTEX
 8
WIRE
 10
  6.2000
 20
  3.1000
 30
0.0
 0
SEQEND
 8
WIRE
 0
POLYLINE
 8
WIRE
 66
1
 10
0.0
 20
0.0
 30
0.0
 0
VERTEX
 8
WIRE
 10
  4.2000
 20
  4.2000
 30
0.0
 0
VERTEX
 8
WIRE
 10
  4.2000
 20
  4.0000
 30
0.0
 0
SEQEND
 8
WIRE
 0
POLYLINE
 8
WIRE
 66
1
 10
0.0
 20
0.0
 30
0.0
 0
VERTEX
 8
WIRE
 10
  7.8000
 20
  5.3000
 30
0.0
 0
VERTEX
 8
WIRE
 10
  7.8000
 20
  2.7000
 30
0.0
 0
SEQEND
 8
WIRE
 0
POLYLINE
 8
WIRE
 66
1
 10
0.0
 20
0.0
 30
0.0
 0
VERTEX
 8
WIRE
 10
  3.6000
 20
  3.1000
 30
0.0
 0
VERTEX
 8
WIRE
 10
  3.6000
 20
  2.5000
 30
0.0
 0
SEQEND
 8
WIRE
 0
POLYLINE
 8
WIRE
 66
1
 10
0.0
 20
0.0
 30
0.0
 0
VERTEX
 8
WIRE
 10
  3.7000
 20
  4.8000
 30
0.0
 0
VERTEX
 8
WIRE
 10
  4.2000
 20
  4.8000
 30
0.0
 0
SEQEND
 8
WIRE
 0
POLYLINE
 8
WIRE
 66
1
 70
1
 10
0.0
 20
0.0
 30
0.0
 40
  0.0200
 41
  0.0200
 0
VERTEX
 8
WIRE
 10
  4.1900
 20
  4.8000
 30
0.0
 42
1.0
 0
VERTEX
 8
WIRE
 10
  4.2100
 20
  4.8000
 30
0.0
 42
1.0
 0
SEQEND
 8
WIRE
 0
POLYLINE
 8
WIRE
 66
1
 10
0.0
 20
0.0
 30
0.0
 0
VERTEX
 8
WIRE
 10
  4.8000
 20
  6.0000
 30
0.0
 0
VERTEX
 8
WIRE
 10
  4.8000
 20
  5.6000
 30
0.0
 0
SEQEND
 8
WIRE
 0
POLYLINE
 8
WIRE
 66
1
 10
0.0
 20
0.0
 30
0.0
 0
VERTEX
 8
WIRE
 10
  2.2000
 20
  4.8000
 30
0.0
 0
VERTEX
 8
WIRE
 10
  2.7000
 20
  4.8000
 30
0.0
 0
SEQEND
 8
WIRE
 0
POLYLINE
 8
WIRE
 66
1
 70
1
 10
0.0
 20
0.0
 30
0.0
 40
  0.0200
 41
  0.0200
 0
VERTEX
 8
WIRE
 10
  2.6900
 20
  4.8000
 30
0.0
 42
1.0
 0
VERTEX
 8
WIRE
 10
  2.7100
 20
  4.8000
 30
0.0
 42
1.0
 0
SEQEND
 8
WIRE
 0
POLYLINE
 8
WIRE
 66
1
 10
0.0
 20
0.0
 30
0.0
 0
VERTEX
 8
WIRE
 10
  1.6000
 20
  5.6000
 30
0.0
 0
VERTEX
 8
WIRE
 10
  4.8000
 20
  5.6000
 30
0.0
 0
SEQEND
 8
WIRE
 0
POLYLINE
 8
WIRE
 66
1
 70
1
 10
0.0
 20
0.0
 30
0.0
 40
  0.0200
 41
  0.0200
 0
VERTEX
 8
WIRE
 10
  4.7900
 20
  5.6000
 30
0.0
 42
1.0
 0
VERTEX
 8
WIRE
 10
  4.8100
 20
  5.6000
 30
0.0
 42
1.0
 0
SEQEND
 8
WIRE
 0
POLYLINE
 8
WIRE
 66
1
 10
0.0
 20
0.0
 30
0.0
 0
VERTEX
 8
WIRE
 10
  5.0000
 20
  3.0000
 30
0.0
 0
VERTEX
 8
WIRE
 10
  5.0000
 20
  2.6000
 30
0.0
 0
SEQEND
 8
WIRE
 0
POLYLINE
 8
WIRE
 66
1
 10
0.0
 20
0.0
 30
0.0
 0
VERTEX
 8
WIRE
 10
  2.7000
 20
  3.0000
 30
0.0
 0
VERTEX
 8
WIRE
 10
  3.4000
 20
  3.0000
 30
0.0
 0
SEQEND
 8
WIRE
 0
POLYLINE
 8
WIRE
 66
1
 10
0.0
 20
0.0
 30
0.0
 0
VERTEX
 8
WIRE
 10
  6.7000
 20
  4.8000
 30
0.0
 0
VERTEX
 8
WIRE
 10
  6.7000
 20
  4.6000
 30
0.0
 0
SEQEND
 8
WIRE
 0
POLYLINE
 8
WIRE
 66
1
 10
0.0
 20
0.0
 30
0.0
 0
VERTEX
 8
WIRE
 10
  1.7000
 20
  4.8000
 30
0.0
 0
VERTEX
 8
WIRE
 10
  1.7000
 20
  4.1000
 30
0.0
 0
SEQEND
 8
WIRE
 0
POLYLINE
 8
WIRE
 66
1
 10
0.0
 20
0.0
 30
0.0
 0
VERTEX
 8
WIRE
 10
  3.5000
 20
  3.1000
 30
0.0
 0
VERTEX
 8
WIRE
 10
  3.5000
 20
  2.5000
 30
0.0
 0
SEQEND
 8
WIRE
 0
POLYLINE
 8
WIRE
 66
1
 10
0.0
 20
0.0
 30
0.0
 0
VERTEX
 8
WIRE
 10
  3.7000
 20
  4.2000
 30
0.0
 0
VERTEX
 8
WIRE
 10
  3.7000
 20
  4.0000
 30
0.0
 0
SEQEND
 8
WIRE
 0
POLYLINE
 8
WIRE
 66
1
 10
0.0
 20
0.0
 30
0.0
 0
VERTEX
 8
WIRE
 10
  7.8000
 20
  5.3000
 30
0.0
 0
VERTEX
 8
WIRE
 10
  8.0000
 20
  5.3000
 30
0.0
 0
SEQEND
 8
WIRE
 0
POLYLINE
 8
WIRE
 66
1
 10
0.0
 20
0.0
 30
0.0
 0
VERTEX
 8
WIRE
 10
  3.2000
 20
  3.1000
 30
0.0
 0
VERTEX
 8
WIRE
 10
  3.5000
 20
  3.1000
 30
0.0
 0
SEQEND
 8
WIRE
 0
POLYLINE
 8
WIRE
 66
1
 10
0.0
 20
0.0
 30
0.0
 0
VERTEX
 8
WIRE
 10
  4.7000
 20
  4.8000
 30
0.0
 0
VERTEX
 8
WIRE
 10
  4.7000
 20
  4.6000
 30
0.0
 0
SEQEND
 8
WIRE
 0
POLYLINE
 8
WIRE
 66
1
 10
0.0
 20
0.0
 30
0.0
 0
VERTEX
 8
WIRE
 10
  3.2000
 20
  4.8000
 30
0.0
 0
VERTEX
 8
WIRE
 10
  3.2000
 20
  4.6000
 30
0.0
 0
SEQEND
 8
WIRE
 0
POLYLINE
 8
WIRE
 66
1
 10
0.0
 20
0.0
 30
0.0
 0
VERTEX
 8
WIRE
 10
  1.6000
 20
  5.5000
 30
0.0
 0
VERTEX
 8
WIRE
 10
  2.0000
 20
  5.5000
 30
0.0
 0
SEQEND
 8
WIRE
 0
POLYLINE
 8
WIRE
 66
1
 10
0.0
 20
0.0
 30
0.0
 0
VERTEX
 8
WIRE
 10
  4.7000
 20
  3.3000
 30
0.0
 0
VERTEX
 8
WIRE
 10
  4.7000
 20
  2.6000
 30
0.0
 0
SEQEND
 8
WIRE
 0
POLYLINE
 8
WIRE
 66
1
 10
0.0
 20
0.0
 30
0.0
 0
VERTEX
 8
WIRE
 10
  2.7000
 20
  3.5000
 30
0.0
 0
VERTEX
 8
WIRE
 10
  2.7000
 20
  3.0000
 30
0.0
 0
SEQEND
 8
WIRE
 0
POLYLINE
 8
WIRE
 66
1
 10
0.0
 20
0.0
 30
0.0
 0
VERTEX
 8
WIRE
 10
  6.2000
 20
  4.8000
 30
0.0
 0
VERTEX
 8
WIRE
 10
  6.7000
 20
  4.8000
 30
0.0
 0
SEQEND
 8
WIRE
 0
POLYLINE
 8
WIRE
 66
1
 70
1
 10
0.0
 20
0.0
 30
0.0
 40
  0.0200
 41
  0.0200
 0
VERTEX
 8
WIRE
 10
  6.6900
 20
  4.8000
 30
0.0
 42
1.0
 0
VERTEX
 8
WIRE
 10
  6.7100
 20
  4.8000
 30
0.0
 42
1.0
 0
SEQEND
 8
WIRE
 0
POLYLINE
 8
WIRE
 66
1
 10
0.0
 20
0.0
 30
0.0
 0
VERTEX
 8
WIRE
 10
  1.7000
 20
  3.6000
 30
0.0
 0
VERTEX
 8
WIRE
 10
  1.7000
 20
  2.8000
 30
0.0
 0
SEQEND
 8
WIRE
 0
POLYLINE
 8
WIRE
 66
1
 10
0.0
 20
0.0
 30
0.0
 0
VERTEX
 8
WIRE
 10
  5.1000
 20
  2.9000
 30
0.0
 0
VERTEX
 8
WIRE
 10
  5.1000
 20
  2.6000
 30
0.0
 0
SEQEND
 8
WIRE
 0
POLYLINE
 8
WIRE
 66
1
 10
0.0
 20
0.0
 30
0.0
 0
VERTEX
 8
WIRE
 10
  3.2000
 20
  4.2000
 30
0.0
 0
VERTEX
 8
WIRE
 10
  3.2000
 20
  4.0000
 30
0.0
 0
SEQEND
 8
WIRE
 0
POLYLINE
 8
WIRE
 66
1
 10
0.0
 20
0.0
 30
0.0
 0
VERTEX
 8
WIRE
 10
  4.8000
 20
  5.6000
 30
0.0
 0
VERTEX
 8
WIRE
 10
  5.2000
 20
  5.6000
 30
0.0
 0
SEQEND
 8
WIRE
 0
POLYLINE
 8
WIRE
 66
1
 70
1
 10
0.0
 20
0.0
 30
0.0
 40
  0.0200
 41
  0.0200
 0
VERTEX
 8
WIRE
 10
  5.1900
 20
  5.6000
 30
0.0
 42
1.0
 0
VERTEX
 8
WIRE
 10
  5.2100
 20
  5.6000
 30
0.0
 42
1.0
 0
SEQEND
 8
WIRE
 0
POLYLINE
 8
WIRE
 66
1
 10
0.0
 20
0.0
 30
0.0
 0
VERTEX
 8
WIRE
 10
  5.2000
 20
  3.5000
 30
0.0
 0
VERTEX
 8
WIRE
 10
  5.2000
 20
  3.3000
 30
0.0
 0
SEQEND
 8
WIRE
 0
POLYLINE
 8
WIRE
 66
1
 10
0.0
 20
0.0
 30
0.0
 0
VERTEX
 8
WIRE
 10
  4.2000
 20
  4.8000
 30
0.0
 0
VERTEX
 8
WIRE
 10
  4.7000
 20
  4.8000
 30
0.0
 0
SEQEND
 8
WIRE
 0
POLYLINE
 8
WIRE
 66
1
 70
1
 10
0.0
 20
0.0
 30
0.0
 40
  0.0200
 41
  0.0200
 0
VERTEX
 8
WIRE
 10
  4.6900
 20
  4.8000
 30
0.0
 42
1.0
 0
VERTEX
 8
WIRE
 10
  4.7100
 20
  4.8000
 30
0.0
 42
1.0
 0
SEQEND
 8
WIRE
 0
POLYLINE
 8
WIRE
 66
1
 10
0.0
 20
0.0
 30
0.0
 0
VERTEX
 8
WIRE
 10
  3.7000
 20
  4.8000
 30
0.0
 0
VERTEX
 8
WIRE
 10
  3.7000
 20
  4.6000
 30
0.0
 0
SEQEND
 8
WIRE
 0
POLYLINE
 8
WIRE
 66
1
 10
0.0
 20
0.0
 30
0.0
 0
VERTEX
 8
WIRE
 10
  2.0000
 20
  5.5000
 30
0.0
 0
VERTEX
 8
WIRE
 10
  2.0000
 20
  2.7000
 30
0.0
 0
SEQEND
 8
WIRE
 0
POLYLINE
 8
WIRE
 66
1
 10
0.0
 20
0.0
 30
0.0
 0
VERTEX
 8
WIRE
 10
  3.4000
 20
  3.0000
 30
0.0
 0
VERTEX
 8
WIRE
 10
  3.4000
 20
  2.5000
 30
0.0
 0
SEQEND
 8
WIRE
 0
POLYLINE
 8
WIRE
 66
1
 10
0.0
 20
0.0
 30
0.0
 0
VERTEX
 8
WIRE
 10
  7.2000
 20
  4.2000
 30
0.0
 0
VERTEX
 8
WIRE
 10
  7.2000
 20
  4.0000
 30
0.0
 0
SEQEND
 8
WIRE
 0
POLYLINE
 8
WIRE
 66
1
 10
0.0
 20
0.0
 30
0.0
 0
VERTEX
 8
WIRE
 10
  5.5000
 20
  2.8000
 30
0.0
 0
VERTEX
 8
WIRE
 10
  5.5000
 20
  2.6000
 30
0.0
 0
SEQEND
 8
WIRE
 0
POLYLINE
 8
WIRE
 66
1
 10
0.0
 20
0.0
 30
0.0
 0
VERTEX
 8
WIRE
 10
  2.7000
 20
  4.8000
 30
0.0
 0
VERTEX
 8
WIRE
 10
  3.2000
 20
  4.8000
 30
0.0
 0
SEQEND
 8
WIRE
 0
POLYLINE
 8
WIRE
 66
1
 70
1
 10
0.0
 20
0.0
 30
0.0
 40
  0.0200
 41
  0.0200
 0
VERTEX
 8
WIRE
 10
  3.1900
 20
  4.8000
 30
0.0
 42
1.0
 0
VERTEX
 8
WIRE
 10
  3.2100
 20
  4.8000
 30
0.0
 42
1.0
 0
SEQEND
 8
WIRE
 0
POLYLINE
 8
WIRE
 66
1
 10
0.0
 20
0.0
 30
0.0
 0
VERTEX
 8
WIRE
 10
  1.7000
 20
  2.8000
 30
0.0
 0
VERTEX
 8
WIRE
 10
  3.2000
 20
  2.8000
 30
0.0
 0
SEQEND
 8
WIRE
 0
POLYLINE
 8
WIRE
 66
1
 10
0.0
 20
0.0
 30
0.0
 0
VERTEX
 8
WIRE
 10
  6.7000
 20
  3.5000
 30
0.0
 0
VERTEX
 8
WIRE
 10
  6.7000
 20
  3.0000
 30
0.0
 0
SEQEND
 8
WIRE
 0
POLYLINE
 8
WIRE
 66
1
 10
0.0
 20
0.0
 30
0.0
 0
VERTEX
 8
WIRE
 10
  2.7000
 20
  4.2000
 30
0.0
 0
VERTEX
 8
WIRE
 10
  2.7000
 20
  4.0000
 30
0.0
 0
SEQEND
 8
WIRE
 0
POLYLINE
 8
WIRE
 66
1
 10
0.0
 20
0.0
 30
0.0
 0
VERTEX
 8
WIRE
 10
  5.2000
 20
  6.2000
 30
0.0
 0
VERTEX
 8
WIRE
 10
  5.2000
 20
  5.6000
 30
0.0
 0
SEQEND
 8
WIRE
 0
POLYLINE
 8
WIRE
 66
1
 10
0.0
 20
0.0
 30
0.0
 0
VERTEX
 8
WIRE
 10
  3.6000
 20
  3.1000
 30
0.0
 0
VERTEX
 8
WIRE
 10
  3.7000
 20
  3.1000
 30
0.0
 0
SEQEND
 8
WIRE
 0
POLYLINE
 8
WIRE
 66
1
 10
0.0
 20
0.0
 30
0.0
 0
VERTEX
 8
WIRE
 10
  5.2000
 20
  4.8000
 30
0.0
 0
VERTEX
 8
WIRE
 10
  5.2000
 20
  4.6000
 30
0.0
 0
SEQEND
 8
WIRE
 0
POLYLINE
 8
WIRE
 66
1
 10
0.0
 20
0.0
 30
0.0
 0
VERTEX
 8
WIRE
 10
  3.2000
 20
  4.8000
 30
0.0
 0
VERTEX
 8
WIRE
 10
  3.7000
 20
  4.8000
 30
0.0
 0
SEQEND
 8
WIRE
 0
POLYLINE
 8
WIRE
 66
1
 70
1
 10
0.0
 20
0.0
 30
0.0
 40
  0.0200
 41
  0.0200
 0
VERTEX
 8
WIRE
 10
  3.6900
 20
  4.8000
 30
0.0
 42
1.0
 0
VERTEX
 8
WIRE
 10
  3.7100
 20
  4.8000
 30
0.0
 42
1.0
 0
SEQEND
 8
WIRE
 0
POLYLINE
 8
WIRE
 66
1
 10
0.0
 20
0.0
 30
0.0
 0
VERTEX
 8
WIRE
 10
  2.0000
 20
  2.7000
 30
0.0
 0
VERTEX
 8
WIRE
 10
  3.1000
 20
  2.7000
 30
0.0
 0
SEQEND
 8
WIRE
 0
POLYLINE
 8
WIRE
 66
1
 10
0.0
 20
0.0
 30
0.0
 0
VERTEX
 8
WIRE
 10
  4.9000
 20
  3.1000
 30
0.0
 0
VERTEX
 8
WIRE
 10
  4.9000
 20
  2.6000
 30
0.0
 0
SEQEND
 8
WIRE
 0
POLYLINE
 8
WIRE
 66
1
 10
0.0
 20
0.0
 30
0.0
 0
VERTEX
 8
WIRE
 10
  6.7000
 20
  4.2000
 30
0.0
 0
VERTEX
 8
WIRE
 10
  6.7000
 20
  4.0000
 30
0.0
 0
SEQEND
 8
WIRE
 0
POLYLINE
 8
WIRE
 66
1
 10
0.0
 20
0.0
 30
0.0
 0
VERTEX
 8
WIRE
 10
  5.5000
 20
  2.8000
 30
0.0
 0
VERTEX
 8
WIRE
 10
  7.7000
 20
  2.8000
 30
0.0
 0
SEQEND
 8
WIRE
 0
POLYLINE
 8
WIRE
 66
1
 10
0.0
 20
0.0
 30
0.0
 0
VERTEX
 8
WIRE
 10
  4.3000
 20
  3.4000
 30
0.0
 0
VERTEX
 8
WIRE
 10
  4.7000
 20
  3.4000
 30
0.0
 0
SEQEND
 8
WIRE
 0
POLYLINE
 8
WIRE
 66
1
 10
0.0
 20
0.0
 30
0.0
 0
VERTEX
 8
WIRE
 10
  3.2000
 20
  2.8000
 30
0.0
 0
VERTEX
 8
WIRE
 10
  3.2000
 20
  2.5000
 30
0.0
 0
SEQEND
 8
WIRE
 0
POLYLINE
 8
WIRE
 66
1
 10
0.0
 20
0.0
 30
0.0
 0
VERTEX
 8
WIRE
 10
  6.2000
 20
  3.5000
 30
0.0
 0
VERTEX
 8
WIRE
 10
  6.2000
 20
  3.1000
 30
0.0
 0
SEQEND
 8
WIRE
 0
POLYLINE
 8
WIRE
 66
1
 10
0.0
 20
0.0
 30
0.0
 0
VERTEX
 8
WIRE
 10
  2.2000
 20
  4.2000
 30
0.0
 0
VERTEX
 8
WIRE
 10
  2.2000
 20
  4.0000
 30
0.0
 0
SEQEND
 8
WIRE
 0
POLYLINE
 8
WIRE
 66
1
 10
0.0
 20
0.0
 30
0.0
 0
VERTEX
 8
WIRE
 10
  5.3000
 20
  5.5000
 30
0.0
 0
VERTEX
 8
WIRE
 10
  8.0000
 20
  5.5000
 30
0.0
 0
SEQEND
 8
WIRE
 0
POLYLINE
 8
WIRE
 66
1
 10
0.0
 20
0.0
 30
0.0
 0
VERTEX
 8
WIRE
 10
  3.8000
 20
  2.9000
 30
0.0
 0
VERTEX
 8
WIRE
 10
  3.8000
 20
  2.5000
 30
0.0
 0
SEQEND
 8
WIRE
 0
POLYLINE
 8
WIRE
 66
1
 10
0.0
 20
0.0
 30
0.0
 0
VERTEX
 8
WIRE
 10
  2.2000
 20
  2.9000
 30
0.0
 0
VERTEX
 8
WIRE
 10
  3.3000
 20
  2.9000
 30
0.0
 0
SEQEND
 8
WIRE
 0
POLYLINE
 8
WIRE
 66
1
 10
0.0
 20
0.0
 30
0.0
 0
VERTEX
 8
WIRE
 10
  4.7000
 20
  4.8000
 30
0.0
 0
VERTEX
 8
WIRE
 10
  5.2000
 20
  4.8000
 30
0.0
 0
SEQEND
 8
WIRE
 0
POLYLINE
 8
WIRE
 66
1
 70
1
 10
0.0
 20
0.0
 30
0.0
 40
  0.0200
 41
  0.0200
 0
VERTEX
 8
WIRE
 10
  5.1900
 20
  4.8000
 30
0.0
 42
1.0
 0
VERTEX
 8
WIRE
 10
  5.2100
 20
  4.8000
 30
0.0
 42
1.0
 0
SEQEND
 8
WIRE
 0
POLYLINE
 8
WIRE
 66
1
 10
0.0
 20
0.0
 30
0.0
 0
VERTEX
 8
WIRE
 10
  4.2000
 20
  4.8000
 30
0.0
 0
VERTEX
 8
WIRE
 10
  4.2000
 20
  4.6000
 30
0.0
 0
SEQEND
 8
WIRE
 0
POLYLINE
 8
WIRE
 66
1
 10
0.0
 20
0.0
 30
0.0
 0
VERTEX
 8
WIRE
 10
  3.1000
 20
  2.7000
 30
0.0
 0
VERTEX
 8
WIRE
 10
  3.1000
 20
  2.5000
 30
0.0
 0
SEQEND
 8
WIRE
 0
POLYLINE
 8
WIRE
 66
1
 10
0.0
 20
0.0
 30
0.0
 0
VERTEX
 8
WIRE
 10
  5.7000
 20
  3.5000
 30
0.0
 0
VERTEX
 8
WIRE
 10
  5.7000
 20
  3.2000
 30
0.0
 0
SEQEND
 8
WIRE
 0
POLYLINE
 8
WIRE
 66
1
 10
0.0
 20
0.0
 30
0.0
 0
VERTEX
 8
WIRE
 10
  6.2000
 20
  4.2000
 30
0.0
 0
VERTEX
 8
WIRE
 10
  6.2000
 20
  4.0000
 30
0.0
 0
SEQEND
 8
WIRE
 0
POLYLINE
 8
WIRE
 66
1
 10
0.0
 20
0.0
 30
0.0
 0
VERTEX
 8
WIRE
 10
  7.7000
 20
  5.4000
 30
0.0
 0
VERTEX
 8
WIRE
 10
  8.0000
 20
  5.4000
 30
0.0
 0
SEQEND
 8
WIRE
 0
POLYLINE
 8
WIRE
 66
1
 10
0.0
 20
0.0
 30
0.0
 0
VERTEX
 8
WIRE
 10
  4.7000
 20
  3.5000
 30
0.0
 0
VERTEX
 8
WIRE
 10
  4.7000
 20
  3.4000
 30
0.0
 0
SEQEND
 8
WIRE
 0
POLYLINE
 8
WIRE
 66
1
 10
0.0
 20
0.0
 30
0.0
 0
VERTEX
 8
WIRE
 10
  1.2000
 20
  3.6000
 30
0.0
 0
VERTEX
 8
WIRE
 10
  1.2000
 20
  3.4000
 30
0.0
 0
SEQEND
 8
WIRE
 0
POLYLINE
 8
WIRE
 66
1
 10
0.0
 20
0.0
 30
0.0
 0
VERTEX
 8
WIRE
 10
  5.0000
 20
  3.0000
 30
0.0
 0
VERTEX
 8
WIRE
 10
  6.7000
 20
  3.0000
 30
0.0
 0
SEQEND
 8
WIRE
 0
POLYLINE
 8
WIRE
 66
1
 10
0.0
 20
0.0
 30
0.0
 0
VERTEX
 8
WIRE
 10
  7.2000
 20
  4.8000
 30
0.0
 0
VERTEX
 8
WIRE
 10
  7.2000
 20
  4.6000
 30
0.0
 0
SEQEND
 8
WIRE
 0
POLYLINE
 8
WIRE
 66
1
 10
0.0
 20
0.0
 30
0.0
 0
VERTEX
 8
WIRE
 10
  5.3000
 20
  6.2000
 30
0.0
 0
VERTEX
 8
WIRE
 10
  5.3000
 20
  5.5000
 30
0.0
 0
SEQEND
 8
WIRE
 0
POLYLINE
 8
WIRE
 66
1
 10
0.0
 20
0.0
 30
0.0
 0
VERTEX
 8
WIRE
 10
  3.7000
 20
  3.5000
 30
0.0
 0
VERTEX
 8
WIRE
 10
  3.7000
 20
  3.1000
 30
0.0
 0
SEQEND
 8
WIRE
 0
POLYLINE
 8
WIRE
 66
1
 10
0.0
 20
0.0
 30
0.0
 0
VERTEX
 8
WIRE
 10
  3.7000
 20
  3.0000
 30
0.0
 0
VERTEX
 8
WIRE
 10
  3.7000
 20
  2.5000
 30
0.0
 0
SEQEND
 8
WIRE
 0
POLYLINE
 8
WIRE
 66
1
 10
0.0
 20
0.0
 30
0.0
 0
VERTEX
 8
WIRE
 10
  5.7000
 20
  4.8000
 30
0.0
 0
VERTEX
 8
WIRE
 10
  5.7000
 20
  4.6000
 30
0.0
 0
SEQEND
 8
WIRE
 0
POLYLINE
 8
WIRE
 66
1
 10
0.0
 20
0.0
 30
0.0
 0
VERTEX
 8
WIRE
 10
  1.6000
 20
  5.4000
 30
0.0
 0
VERTEX
 8
WIRE
 10
  1.7000
 20
  5.4000
 30
0.0
 0
SEQEND
 8
WIRE
 0
POLYLINE
 8
WIRE
 66
1
 10
0.0
 20
0.0
 30
0.0
 0
VERTEX
 8
WIRE
 10
  3.7000
 20
  3.0000
 30
0.0
 0
VERTEX
 8
WIRE
 10
  4.2000
 20
  3.0000
 30
0.0
 0
SEQEND
 8
WIRE
 0
POLYLINE
 8
WIRE
 66
1
 10
0.0
 20
0.0
 30
0.0
 0
VERTEX
 8
WIRE
 10
  5.7000
 20
  4.2000
 30
0.0
 0
VERTEX
 8
WIRE
 10
  5.7000
 20
  4.0000
 30
0.0
 0
SEQEND
 8
WIRE
 0
POLYLINE
 8
WIRE
 66
1
 10
0.0
 20
0.0
 30
0.0
 0
VERTEX
 8
WIRE
 10
  7.7000
 20
  5.4000
 30
0.0
 0
VERTEX
 8
WIRE
 10
  7.7000
 20
  2.8000
 30
0.0
 0
SEQEND
 8
WIRE
 0
POLYLINE
 8
WIRE
 66
1
 10
0.0
 20
0.0
 30
0.0
 0
VERTEX
 8
WIRE
 10
  4.2000
 20
  3.5000
 30
0.0
 0
VERTEX
 8
WIRE
 10
  4.2000
 20
  3.0000
 30
0.0
 0
SEQEND
 8
WIRE
 0
POLYLINE
 8
WIRE
 66
1
 10
0.0
 20
0.0
 30
0.0
 0
VERTEX
 8
WIRE
 10
  0.5000
 20
  3.4000
 30
0.0
 0
VERTEX
 8
WIRE
 10
  1.2000
 20
  3.4000
 30
0.0
 0
SEQEND
 8
WIRE
 0
POLYLINE
 8
WIRE
 66
1
 10
0.0
 20
0.0
 30
0.0
 0
VERTEX
 8
WIRE
 10
  6.7000
 20
  4.8000
 30
0.0
 0
VERTEX
 8
WIRE
 10
  7.2000
 20
  4.8000
 30
0.0
 0
SEQEND
 8
WIRE
 0
POLYLINE
 8
WIRE
 66
1
 10
0.0
 20
0.0
 30
0.0
 0
VERTEX
 8
WIRE
 10
  3.2000
 20
  3.5000
 30
0.0
 0
VERTEX
 8
WIRE
 10
  3.2000
 20
  3.1000
 30
0.0
 0
SEQEND
 8
WIRE
 0
POLYLINE
 8
WIRE
 66
1
 10
0.0
 20
0.0
 30
0.0
 0
VERTEX
 8
WIRE
 10
  3.8000
 20
  2.9000
 30
0.0
 0
VERTEX
 8
WIRE
 10
  4.3000
 20
  2.9000
 30
0.0
 0
SEQEND
 8
WIRE
 0
POLYLINE
 8
WIRE
 66
1
 10
0.0
 20
0.0
 30
0.0
 0
VERTEX
 8
WIRE
 10
  5.2000
 20
  4.8000
 30
0.0
 0
VERTEX
 8
WIRE
 10
  5.7000
 20
  4.8000
 30
0.0
 0
SEQEND
 8
WIRE
 0
POLYLINE
 8
WIRE
 66
1
 70
1
 10
0.0
 20
0.0
 30
0.0
 40
  0.0200
 41
  0.0200
 0
VERTEX
 8
WIRE
 10
  5.6900
 20
  4.8000
 30
0.0
 42
1.0
 0
VERTEX
 8
WIRE
 10
  5.7100
 20
  4.8000
 30
0.0
 42
1.0
 0
SEQEND
 8
WIRE
 0
POLYLINE
 8
WIRE
 66
1
 10
0.0
 20
0.0
 30
0.0
 0
VERTEX
 8
WIRE
 10
  1.7000
 20
  5.4000
 30
0.0
 0
VERTEX
 8
WIRE
 10
  1.7000
 20
  4.8000
 30
0.0
 0
SEQEND
 8
WIRE
 0
POLYLINE
 8
WIRE
 66
1
 70
1
 10
0.0
 20
0.0
 30
0.0
 40
  0.0200
 41
  0.0200
 0
VERTEX
 8
WIRE
 10
  1.6900
 20
  4.8000
 30
0.0
 42
1.0
 0
VERTEX
 8
WIRE
 10
  1.7100
 20
  4.8000
 30
0.0
 42
1.0
 0
SEQEND
 8
WIRE
 0
POLYLINE
 8
WIRE
 66
1
 10
0.0
 20
0.0
 30
0.0
 0
VERTEX
 8
WIRE
 10
  3.3000
 20
  2.9000
 30
0.0
 0
VERTEX
 8
WIRE
 10
  3.3000
 20
  2.5000
 30
0.0
 0
SEQEND
 8
WIRE
 0
POLYLINE
 8
WIRE
 66
1
 10
0.0
 20
0.0
 30
0.0
 0
VERTEX
 8
WIRE
 10
  5.2000
 20
  4.2000
 30
0.0
 0
VERTEX
 8
WIRE
 10
  5.2000
 20
  4.0000
 30
0.0
 0
SEQEND
 8
WIRE
 0
POLYLINE
 8
WIRE
 66
1
 10
0.0
 20
0.0
 30
0.0
 0
VERTEX
 8
WIRE
 10
  5.6000
 20
  2.7000
 30
0.0
 0
VERTEX
 8
WIRE
 10
  5.6000
 20
  2.6000
 30
0.0
 0
SEQEND
 8
WIRE
 0
POLYLINE
 8
WIRE
 66
1
 10
0.0
 20
0.0
 30
0.0
 0
VERTEX
 8
WIRE
 10
  2.2000
 20
  3.5000
 30
0.0
 0
VERTEX
 8
WIRE
 10
  2.2000
 20
  2.9000
 30
0.0
 0
SEQEND
 8
WIRE
 0
POLYLINE
 8
WIRE
 66
1
 10
0.0
 20
0.0
 30
0.0
 0
VERTEX
 8
WIRE
 10
  5.2000
 20
  5.6000
 30
0.0
 0
VERTEX
 8
WIRE
 10
  8.0000
 20
  5.6000
 30
0.0
 0
SEQEND
 8
WIRE
 0
POLYLINE
 8
WIRE
 66
1
 10
0.0
 20
0.0
 30
0.0
 0
VERTEX
 8
WIRE
 10
  5.2000
 20
  5.6000
 30
0.0
 0
VERTEX
 8
WIRE
 10
  5.2000
 20
  4.8000
 30
0.0
 0
SEQEND
 8
WIRE
 0
ENDSEC
 0
EOF
